<?xml version="1.0" encoding="UTF-8"?>
<!DOCTYPE svg PUBLIC "-//W3C//DTD SVG 1.1//EN" "http://www.w3.org/Graphics/SVG/1.1/DTD/svg11.dtd">
<!-- Creator: CorelDRAW X7 -->
<svg xmlns="http://www.w3.org/2000/svg" xml:space="preserve" width="1920px" height="1080px" version="1.1" style="shape-rendering:geometricPrecision; text-rendering:geometricPrecision; image-rendering:optimizeQuality; fill-rule:evenodd; clip-rule:evenodd"
viewBox="0 0 1920 1080"
 xmlns:xlink="http://www.w3.org/1999/xlink">
 <defs>
  <style type="text/css">
   <![CDATA[
    .fil0 {fill:#457ABE}
    .fil1 {fill:#86B5E1;fill-rule:nonzero}
    .fil4 {fill:#86B5E1;fill-rule:nonzero}
    .fil2 {fill:white;fill-rule:nonzero}
    .fil3 {fill:white;fill-rule:nonzero}
   ]]>
  </style>
 </defs>
 <g id="Layer_x0020_1">
  <metadata id="CorelCorpID_0Corel-Layer"/>
  <rect class="fil0" width="1920" height="1080"/>
  <g id="_330732264">
   <path class="fil1" d="M1646 185c-21,-33 -11,-77 22,-98 33,-21 77,-11 98,22 21,33 11,77 -22,98 -33,21 -77,11 -98,-22z"/>
   <g>
    <path class="fil2" d="M1721 158c4,8 14,10 22,5 7,-5 9,-15 5,-22 -5,-8 -15,-10 -22,-5 -8,5 -10,15 -5,22l0 0zm13 10c-6,0 -12,-3 -15,-9l0 0c-6,-8 -3,-19 5,-25 9,-5 20,-3 26,6 5,8 2,20 -6,25 -3,2 -7,3 -10,3z"/>
    <path class="fil2" d="M1753 179l-1 -1c15,-10 20,-31 10,-46 -10,-15 -30,-20 -46,-10 -15,9 -20,30 -10,45l-2 1c-10,-16 -5,-38 11,-48 17,-10 38,-6 49,11 10,16 5,38 -11,48z"/>
    <path class="fil2" d="M1734 208c-19,0 -38,-10 -49,-27 -17,-27 -9,-63 18,-80 27,-18 63,-9 80,18l-2 1c-16,-26 -51,-34 -77,-18 -26,17 -34,51 -17,77 12,20 36,30 59,25l0 2c-4,1 -8,2 -12,2z"/>
    <path class="fil2" d="M1734 222c-24,0 -48,-12 -61,-34 -8,-13 -12,-27 -11,-43l2 1c-1,14 3,29 10,41 21,33 65,43 98,22 33,-21 43,-64 22,-97 -10,-16 -26,-27 -44,-31 -19,-4 -38,-1 -54,9l-1 -2c17,-10 36,-14 55,-9 19,4 35,15 46,32 21,34 11,79 -23,100 -12,8 -25,11 -39,11z"/>
   </g>
  </g>
  <g id="_332242704">
   <polygon class="fil3" points="225,531 218,525 225,519 220,514 214,520 208,514 203,519 209,525 203,531 208,536 214,530 220,536 "/>
   <polygon class="fil3" points="274,531 267,525 274,519 269,514 263,520 257,514 252,519 258,525 252,531 257,536 263,530 269,536 "/>
   <polygon class="fil3" points="323,531 316,525 323,519 318,514 312,520 305,514 301,519 307,525 301,531 305,536 312,530 318,536 "/>
   <polygon class="fil3" points="371,531 365,525 371,519 367,514 361,520 354,514 350,519 356,525 350,531 354,536 361,530 367,536 "/>
   <polygon class="fil3" points="225,585 218,578 225,572 220,568 214,574 208,568 203,572 209,578 203,585 208,589 214,583 220,589 "/>
   <polygon class="fil3" points="274,585 267,578 274,572 269,568 263,574 257,568 252,572 258,578 252,585 257,589 263,583 269,589 "/>
   <polygon class="fil3" points="323,585 316,578 323,572 318,568 312,574 305,568 301,572 307,578 301,585 305,589 312,583 318,589 "/>
   <polygon class="fil3" points="371,585 365,578 371,572 367,568 361,574 354,568 350,572 356,578 350,585 354,589 361,583 367,589 "/>
   <polygon class="fil3" points="225,634 218,628 225,622 220,617 214,623 208,617 203,622 209,628 203,634 208,639 214,632 220,639 "/>
   <polygon class="fil3" points="274,634 267,628 274,622 269,617 263,623 257,617 252,622 258,628 252,634 257,639 263,632 269,639 "/>
   <polygon class="fil3" points="323,634 316,628 323,622 318,617 312,623 305,617 301,622 307,628 301,634 305,639 312,632 318,639 "/>
   <polygon class="fil3" points="371,634 365,628 371,622 367,617 361,623 354,617 350,622 356,628 350,634 354,639 361,632 367,639 "/>
   <polygon class="fil3" points="225,687 218,681 225,675 220,670 214,676 208,670 203,675 209,681 203,687 208,692 214,686 220,692 "/>
   <polygon class="fil3" points="274,687 267,681 274,675 269,670 263,676 257,670 252,675 258,681 252,687 257,692 263,686 269,692 "/>
   <polygon class="fil3" points="323,687 316,681 323,675 318,670 312,676 305,670 301,675 307,681 301,687 305,692 312,686 318,692 "/>
   <polygon class="fil3" points="371,687 365,681 371,675 367,670 361,676 354,670 350,675 356,681 350,687 354,692 361,686 367,692 "/>
   <polygon class="fil3" points="225,731 218,725 225,719 220,714 214,721 208,714 203,719 209,725 203,731 208,736 214,730 220,736 "/>
   <polygon class="fil3" points="274,731 267,725 274,719 269,714 263,721 257,714 252,719 258,725 252,731 257,736 263,730 269,736 "/>
   <polygon class="fil3" points="323,731 316,725 323,719 318,714 312,721 305,714 301,719 307,725 301,731 305,736 312,730 318,736 "/>
   <polygon class="fil3" points="371,731 365,725 371,719 367,714 361,721 354,714 350,719 356,725 350,731 354,736 361,730 367,736 "/>
  </g>
  <g id="_332244000">
   <polygon class="fil4" points="1780,672 1727,620 1780,567 1833,620 "/>
   <path class="fil3" d="M1716 672c2,-1 4,-2 6,-2l2 0c5,-1 8,-5 9,-9 1,-7 6,-11 12,-12l2 -1c5,0 8,-4 9,-8l0 -1c1,-6 6,-11 13,-12l1 0c5,0 8,-4 9,-9l0 0c2,-6 7,-11 13,-12l1 0c5,-1 8,-4 9,-9l0 -1c1,-2 2,-3 3,-5l2 3c0,1 -1,2 -1,3l0 1c-2,6 -7,11 -13,12l-1 0c-4,0 -8,4 -9,9l0 0c-2,6 -6,11 -13,12l-1 0c-5,1 -8,4 -9,9l0 0c-2,6 -6,11 -13,12l-1 0c-5,1 -9,5 -9,9 -2,6 -6,11 -13,12l-1 0c-2,1 -3,1 -5,2l-2 -3z"/>
   <path class="fil3" d="M1732 689c1,-1 3,-2 6,-2l1 0c5,-1 9,-5 10,-9 1,-7 6,-11 12,-12l1 -1c5,0 9,-4 10,-8l0 -1c1,-6 6,-11 12,-12l1 0c5,0 9,-4 10,-9l0 0c1,-6 6,-11 12,-12l1 0c5,-1 9,-4 10,-9l0 -1c0,-2 1,-3 2,-5l3 3c-1,1 -1,2 -1,3l-1 1c-1,6 -6,11 -12,12l-1 0c-5,0 -9,4 -10,9l0 0c-1,6 -6,11 -12,12l-1 0c-5,1 -9,4 -10,9l0 0c-1,6 -6,11 -12,12l-2 0c-4,1 -8,5 -9,9 -1,6 -6,11 -12,12l-2 0c-1,1 -3,1 -4,2l-2 -3z"/>
   <path class="fil3" d="M1671 623l0 0c5,-1 9,-4 9,-9 2,-6 7,-11 13,-12l1 0c5,-1 9,-4 10,-9l0 0c1,-7 6,-11 12,-12l1 0c5,-1 9,-5 10,-9l0 -1c1,-6 6,-11 12,-11l1 -1c5,0 9,-4 10,-8l0 -1c1,-5 4,-8 8,-10l2 2c-3,2 -6,5 -7,9l0 0c-1,6 -6,11 -12,12l-1 0c-5,1 -9,4 -10,9l0 0c-1,7 -6,11 -12,12l-2 0c-4,1 -8,5 -9,9l0 1c-1,6 -6,10 -12,11l-2 1c-4,0 -8,4 -9,9 -1,5 -5,10 -11,11l-2 -3z"/>
   <path class="fil3" d="M1686 640l1 0c5,-1 8,-4 9,-9 1,-6 6,-11 12,-12l2 0c5,-1 8,-4 9,-9l0 0c1,-7 6,-11 13,-12l1 0c5,-1 8,-5 9,-9l0 -1c2,-6 7,-11 13,-11l1 -1c5,0 8,-4 9,-8l1 -1c0,-5 3,-8 7,-10l3 2c-4,2 -6,5 -7,9l0 0c-1,6 -6,11 -13,12l-1 0c-4,1 -8,4 -9,9l0 0c-1,7 -6,11 -13,12l-1 0c-5,1 -8,5 -9,9l0 1c-1,6 -6,10 -13,11l-1 1c-5,0 -9,4 -9,9 -1,5 -6,10 -11,11l-3 -3z"/>
   <path class="fil3" d="M1702 657l1 0c4,-1 8,-4 9,-9 1,-6 6,-11 12,-12l2 0c4,-1 8,-4 9,-9l0 0c1,-7 6,-11 12,-12l2 0c4,-1 8,-5 9,-9l0 -1c1,-6 6,-11 13,-12l1 0c4,0 8,-4 9,-8l0 -1c1,-5 4,-8 8,-10l2 2c-3,2 -6,5 -6,9l-1 0c-1,6 -6,11 -12,12l-1 0c-5,1 -9,4 -10,9l0 0c-1,7 -6,11 -12,12l-1 0c-5,1 -9,5 -10,9l0 1c-1,6 -6,10 -12,11l-1 1c-5,0 -9,4 -10,9 -1,5 -5,10 -10,11l-3 -3z"/>
  </g>
  <g id="_332242776">
   <polygon class="fil3" points="1082,289 1070,281 1061,288 1059,286 1070,278 1082,286 1093,278 1105,286 1115,278 1127,286 1138,278 1149,286 1161,278 1172,286 1183,278 1184,280 1172,289 1161,281 1149,289 1138,281 1127,289 1115,281 1105,289 1093,281 "/>
   <polygon class="fil3" points="1082,305 1070,297 1061,305 1059,303 1070,294 1082,302 1093,294 1105,302 1115,294 1127,302 1138,294 1149,302 1161,294 1172,302 1183,295 1184,297 1172,305 1161,297 1149,305 1138,297 1127,305 1115,297 1105,305 1093,297 "/>
   <polygon class="fil3" points="1082,322 1070,314 1061,321 1059,319 1070,311 1082,319 1093,311 1105,319 1115,311 1127,319 1138,311 1149,319 1161,311 1172,319 1183,311 1184,313 1172,322 1161,314 1149,322 1138,314 1127,322 1115,314 1105,322 1093,314 "/>
   <polygon class="fil3" points="1082,339 1070,330 1061,338 1059,336 1070,327 1082,335 1093,327 1105,335 1115,327 1127,335 1138,327 1149,335 1161,327 1172,335 1183,328 1184,330 1172,339 1161,330 1149,339 1138,330 1127,339 1115,330 1105,339 1093,330 "/>
  </g>
 </g>
</svg>
