<?xml version="1.0" encoding="UTF-8"?>
<!DOCTYPE svg PUBLIC "-//W3C//DTD SVG 1.1//EN" "http://www.w3.org/Graphics/SVG/1.1/DTD/svg11.dtd">
<!-- Creator: CorelDRAW X7 -->
<svg xmlns="http://www.w3.org/2000/svg" xml:space="preserve" width="1080px" height="2560px" version="1.1" style="shape-rendering:geometricPrecision; text-rendering:geometricPrecision; image-rendering:optimizeQuality; fill-rule:evenodd; clip-rule:evenodd"
viewBox="0 0 1080 2560"
 xmlns:xlink="http://www.w3.org/1999/xlink">
 <defs>
  <style type="text/css">
   <![CDATA[
    .fil0 {fill:#457ABE}
    .fil2 {fill:#86B5E1;fill-rule:nonzero}
    .fil1 {fill:white;fill-rule:nonzero}
    .fil3 {fill:white;fill-rule:nonzero}
   ]]>
  </style>
 </defs>
 <g id="Layer_x0020_1">
  <metadata id="CorelCorpID_0Corel-Layer"/>
  <rect class="fil0" width="1080" height="2560"/>
  <g id="_328370280">
   <polygon class="fil1" points="240,445 245,451 240,456 244,460 249,455 254,460 258,456 253,451 258,445 254,441 249,447 244,441 "/>
   <polygon class="fil1" points="197,445 202,451 197,456 201,460 206,455 212,460 216,456 210,451 216,445 212,441 206,447 201,441 "/>
   <polygon class="fil1" points="154,445 160,451 154,456 158,460 164,455 169,460 173,456 168,451 173,445 169,441 164,447 158,441 "/>
   <polygon class="fil1" points="112,445 117,451 112,456 116,460 121,455 126,460 130,456 125,451 130,445 126,441 121,447 116,441 "/>
   <polygon class="fil1" points="240,399 245,404 240,410 244,414 249,408 254,414 258,410 253,404 258,399 254,395 249,400 244,395 "/>
   <polygon class="fil1" points="197,399 202,404 197,410 201,414 206,408 212,414 216,410 210,404 216,399 212,395 206,400 201,395 "/>
   <polygon class="fil1" points="154,399 160,404 154,410 158,414 164,408 169,414 173,410 168,404 173,399 169,395 164,400 158,395 "/>
   <polygon class="fil1" points="112,399 117,404 112,410 116,414 121,408 126,414 130,410 125,404 130,399 126,395 121,400 116,395 "/>
   <polygon class="fil1" points="240,356 245,361 240,367 244,371 249,365 254,371 258,367 253,361 258,356 254,352 249,357 244,352 "/>
   <polygon class="fil1" points="197,356 202,361 197,367 201,371 206,365 212,371 216,367 210,361 216,356 212,352 206,357 201,352 "/>
   <polygon class="fil1" points="154,356 160,361 154,367 158,371 164,365 169,371 173,367 168,361 173,356 169,352 164,357 158,352 "/>
   <polygon class="fil1" points="112,356 117,361 112,367 116,371 121,365 126,371 130,367 125,361 130,356 126,352 121,357 116,352 "/>
   <polygon class="fil1" points="240,309 245,315 240,320 244,324 249,319 254,324 258,320 253,315 258,309 254,305 249,311 244,305 "/>
   <polygon class="fil1" points="197,309 202,315 197,320 201,324 206,319 212,324 216,320 210,315 216,309 212,305 206,311 201,305 "/>
   <polygon class="fil1" points="154,309 160,315 154,320 158,324 164,319 169,324 173,320 168,315 173,309 169,305 164,311 158,305 "/>
   <polygon class="fil1" points="112,309 117,315 112,320 116,324 121,319 126,324 130,320 125,315 130,309 126,305 121,311 116,305 "/>
   <polygon class="fil1" points="240,271 245,276 240,282 244,286 249,280 254,286 258,282 253,276 258,271 254,267 249,272 244,267 "/>
   <polygon class="fil1" points="197,271 202,276 197,282 201,286 206,280 212,286 216,282 210,276 216,271 212,267 206,272 201,267 "/>
   <polygon class="fil1" points="154,271 160,276 154,282 158,286 164,280 169,286 173,282 168,276 173,271 169,267 164,272 158,267 "/>
   <polygon class="fil1" points="112,271 117,276 112,282 116,286 121,280 126,286 130,282 125,276 130,271 126,267 121,272 116,267 "/>
  </g>
  <g id="_327893712">
   <polygon class="fil2" points="151,1000 204,947 256,1000 204,1053 "/>
   <path class="fil1" d="M151 936c1,2 2,4 2,6l1 2c0,5 4,8 9,9 6,1 11,6 12,12l0 2c1,5 4,8 9,9l0 0c6,1 11,6 12,13l0 1c1,5 4,8 9,9l0 0c7,2 11,7 12,13l0 1c1,5 4,8 9,9l1 1c2,0 4,1 5,2l-2 2c-1,0 -3,-1 -4,-1l-1 0c-6,-1 -10,-6 -11,-13l0 -1c-1,-4 -5,-8 -9,-9l-1 0c-6,-1 -11,-6 -11,-13l-1 -1c0,-5 -4,-8 -9,-9l0 0c-6,-1 -11,-6 -12,-12l0 -2c-1,-5 -4,-8 -9,-9 -6,-1 -11,-6 -12,-12l0 -2c0,-2 -1,-3 -2,-5l3 -2z"/>
   <path class="fil1" d="M134 952c1,1 2,4 2,6l1 2c0,4 4,8 9,9 6,1 11,6 12,12l0 2c1,4 4,8 9,9l0 0c6,1 11,6 12,12l0 2c1,4 4,8 9,9l0 0c7,1 11,6 12,13l0 1c1,4 4,8 9,9l1 0c2,1 4,1 5,3l-2 2c-1,-1 -3,-1 -4,-1l-1 0c-6,-2 -10,-7 -11,-13l0 -1c-1,-5 -5,-9 -9,-9l-1 -1c-6,-1 -11,-6 -11,-12l-1 -1c0,-5 -4,-9 -9,-10l0 0c-6,-1 -11,-6 -12,-12l0 -1c-1,-5 -4,-9 -9,-10 -6,-1 -11,-6 -12,-12l0 -2c0,-1 -1,-3 -2,-4l3 -2z"/>
   <path class="fil1" d="M200 891l0 0c1,5 5,9 9,10 6,1 11,6 12,12l0 1c1,5 5,9 9,10l1 0c6,1 11,6 11,12l1 1c0,5 4,9 9,10l0 0c6,1 11,6 12,12l0 1c1,5 4,9 9,10l0 0c5,1 9,4 11,8l-3 2c-2,-3 -5,-6 -8,-6l-1 -1c-6,-1 -11,-6 -12,-12l0 -1c0,-5 -4,-9 -9,-10l0 0c-6,-1 -11,-6 -12,-12l0 -1c-1,-5 -4,-9 -9,-10l0 0c-6,-1 -11,-6 -12,-12l0 -2c-1,-4 -5,-8 -9,-9 -6,-1 -10,-5 -12,-10l3 -3z"/>
   <path class="fil1" d="M183 906l0 1c1,5 5,8 9,9 6,1 11,6 12,13l0 1c1,5 5,8 9,9l1 0c6,2 11,7 12,13l0 1c0,5 4,8 9,9l0 1c6,1 11,6 12,12l0 1c1,5 4,9 9,9l1 1c4,1 8,3 10,7l-3 3c-2,-4 -5,-6 -8,-7l-1 0c-6,-1 -11,-6 -12,-12l0 -2c0,-4 -4,-8 -9,-9l0 0c-6,-1 -11,-6 -12,-12l0 -2c-1,-4 -4,-8 -9,-9l0 0c-6,-1 -11,-6 -12,-12l0 -2c-1,-5 -5,-8 -9,-9 -6,-1 -10,-5 -12,-11l3 -3z"/>
   <path class="fil1" d="M166 922l0 1c1,4 5,8 9,9 6,1 11,6 12,12l0 2c1,4 5,8 9,9l1 0c6,1 11,6 12,12l0 2c0,4 4,8 9,9l0 0c6,1 11,6 12,13l0 1c1,4 4,8 9,9l1 0c4,1 8,4 10,8l-3 3c-2,-4 -5,-6 -8,-7l-1 0c-6,-2 -11,-7 -12,-13l0 -1c0,-5 -4,-8 -9,-9l0 0c-6,-2 -11,-7 -12,-13l0 -1c-1,-5 -4,-9 -9,-9l0 -1c-6,-1 -11,-6 -12,-12l0 -1c-1,-5 -5,-9 -9,-10 -6,-1 -10,-5 -12,-10l3 -3z"/>
  </g>
  <g id="_327893496">
   <polygon class="fil1" points="159,1622 147,1614 137,1621 136,1619 147,1611 159,1619 170,1611 181,1619 192,1611 204,1619 215,1611 226,1619 238,1611 249,1619 259,1611 261,1613 249,1622 237,1614 226,1622 215,1614 204,1622 192,1614 182,1622 170,1614 "/>
   <polygon class="fil1" points="159,1638 147,1630 137,1638 136,1636 147,1627 159,1635 170,1627 181,1635 192,1627 204,1635 215,1627 226,1635 238,1627 249,1635 259,1628 261,1630 249,1638 237,1630 226,1638 215,1630 204,1638 192,1630 182,1638 170,1630 "/>
   <polygon class="fil1" points="159,1655 147,1647 137,1654 136,1652 147,1644 159,1652 170,1644 181,1652 192,1644 204,1652 215,1644 226,1652 238,1644 249,1652 259,1644 261,1646 249,1655 237,1647 226,1655 215,1647 204,1655 192,1647 182,1655 170,1647 "/>
   <polygon class="fil1" points="159,1672 147,1664 137,1671 136,1669 147,1660 159,1668 170,1660 181,1668 192,1660 204,1668 215,1660 226,1668 238,1660 249,1668 259,1661 261,1663 249,1672 237,1664 226,1672 215,1664 204,1672 192,1664 182,1672 170,1664 "/>
  </g>
  <g id="_91514816">
   <path class="fil2" d="M898 1299c33,-21 77,-11 98,22 21,33 11,77 -22,98 -34,21 -78,12 -99,-22 -21,-33 -11,-77 23,-98z"/>
   <g>
    <path class="fil3" d="M924 1374c-7,4 -9,14 -5,22 5,7 15,10 23,5 7,-5 9,-15 5,-22 -5,-8 -15,-10 -23,-5l0 0zm-9 13c0,-6 3,-12 8,-15l0 0c9,-6 20,-3 25,5 6,9 3,20 -5,26 -9,5 -20,2 -25,-6 -2,-3 -3,-6 -3,-10z"/>
    <path class="fil3" d="M903 1406l2 -1c10,15 30,20 46,10 15,-10 20,-30 10,-45 -10,-16 -30,-20 -46,-11l-1 -2c17,-10 38,-5 49,11 10,17 5,39 -11,49 -17,10 -38,5 -49,-11z"/>
    <path class="fil3" d="M875 1387c0,-19 10,-38 27,-49 27,-17 63,-9 80,18 17,27 9,63 -18,80l-1 -2c26,-16 34,-51 17,-77 -16,-26 -51,-34 -77,-17 -20,12 -30,36 -25,59l-2 0c-1,-4 -1,-8 -1,-12z"/>
    <path class="fil3" d="M860 1387c0,-24 12,-47 34,-61 13,-8 28,-12 43,-11l0 2c-15,-1 -29,3 -42,10 -33,21 -42,65 -22,98 21,33 65,43 98,22 16,-10 27,-26 31,-44 4,-19 1,-38 -9,-54l1 -1c11,17 14,36 10,55 -4,19 -16,35 -32,46 -34,21 -79,11 -100,-23 -8,-12 -12,-25 -12,-39z"/>
   </g>
  </g>
  <g id="_91514504">
   <polygon class="fil1" points="898,759 886,751 877,759 875,757 886,748 898,756 909,748 921,756 931,748 943,756 954,748 965,756 977,748 988,756 999,749 1000,751 988,759 977,751 965,759 954,751 943,759 931,751 921,759 909,751 "/>
   <polygon class="fil1" points="898,776 886,768 877,775 875,773 886,765 898,773 909,765 921,773 931,765 943,773 954,765 965,773 977,765 988,773 999,765 1000,767 988,776 977,768 965,776 954,768 943,776 931,768 921,776 909,768 "/>
   <polygon class="fil1" points="898,792 886,784 877,792 875,790 886,781 898,789 909,781 921,789 931,781 943,789 954,781 965,789 977,781 988,789 999,782 1000,784 988,792 977,784 965,792 954,784 943,792 931,784 921,792 909,784 "/>
   <polygon class="fil1" points="898,809 886,801 877,808 875,806 886,798 898,806 909,798 921,806 931,798 943,806 954,798 965,806 977,798 988,806 999,798 1000,800 988,809 977,801 965,809 954,801 943,809 931,801 921,809 909,801 "/>
  </g>
  <g id="_335060920">
   <polygon class="fil1" points="974,2104 979,2109 974,2114 978,2118 983,2113 989,2118 993,2114 987,2109 993,2104 989,2100 983,2105 978,2100 "/>
   <polygon class="fil1" points="931,2104 937,2109 931,2114 935,2118 940,2113 946,2118 950,2114 944,2109 950,2104 946,2100 940,2105 935,2100 "/>
   <polygon class="fil1" points="888,2104 894,2109 888,2114 892,2118 898,2113 903,2118 907,2114 902,2109 907,2104 903,2100 898,2105 892,2100 "/>
   <polygon class="fil1" points="846,2104 851,2109 846,2114 850,2118 855,2113 861,2118 865,2114 859,2109 865,2104 861,2100 855,2105 850,2100 "/>
   <polygon class="fil1" points="974,2057 979,2063 974,2068 978,2072 983,2067 989,2072 993,2068 987,2063 993,2057 989,2053 983,2059 978,2053 "/>
   <polygon class="fil1" points="931,2057 937,2063 931,2068 935,2072 940,2067 946,2072 950,2068 944,2063 950,2057 946,2053 940,2059 935,2053 "/>
   <polygon class="fil1" points="888,2057 894,2063 888,2068 892,2072 898,2067 903,2072 907,2068 902,2063 907,2057 903,2053 898,2059 892,2053 "/>
   <polygon class="fil1" points="846,2057 851,2063 846,2068 850,2072 855,2067 861,2072 865,2068 859,2063 865,2057 861,2053 855,2059 850,2053 "/>
   <polygon class="fil1" points="974,2014 979,2019 974,2025 978,2029 983,2023 989,2029 993,2025 987,2019 993,2014 989,2010 983,2016 978,2010 "/>
   <polygon class="fil1" points="931,2014 937,2019 931,2025 935,2029 940,2023 946,2029 950,2025 944,2019 950,2014 946,2010 940,2016 935,2010 "/>
   <polygon class="fil1" points="888,2014 894,2019 888,2025 892,2029 898,2023 903,2029 907,2025 902,2019 907,2014 903,2010 898,2016 892,2010 "/>
   <polygon class="fil1" points="846,2014 851,2019 846,2025 850,2029 855,2023 861,2029 865,2025 859,2019 865,2014 861,2010 855,2016 850,2010 "/>
   <polygon class="fil1" points="974,1968 979,1973 974,1978 978,1982 983,1977 989,1982 993,1978 987,1973 993,1968 989,1964 983,1969 978,1964 "/>
   <polygon class="fil1" points="931,1968 937,1973 931,1978 935,1982 940,1977 946,1982 950,1978 944,1973 950,1968 946,1964 940,1969 935,1964 "/>
   <polygon class="fil1" points="888,1968 894,1973 888,1978 892,1982 898,1977 903,1982 907,1978 902,1973 907,1968 903,1964 898,1969 892,1964 "/>
   <polygon class="fil1" points="846,1968 851,1973 846,1978 850,1982 855,1977 861,1982 865,1978 859,1973 865,1968 861,1964 855,1969 850,1964 "/>
   <polygon class="fil1" points="974,1929 979,1935 974,1940 978,1944 983,1939 989,1944 993,1940 987,1935 993,1929 989,1925 983,1931 978,1925 "/>
   <polygon class="fil1" points="931,1929 937,1935 931,1940 935,1944 940,1939 946,1944 950,1940 944,1935 950,1929 946,1925 940,1931 935,1925 "/>
   <polygon class="fil1" points="888,1929 894,1935 888,1940 892,1944 898,1939 903,1944 907,1940 902,1935 907,1929 903,1925 898,1931 892,1925 "/>
   <polygon class="fil1" points="846,1929 851,1935 846,1940 850,1944 855,1939 861,1944 865,1940 859,1935 865,1929 861,1925 855,1931 850,1925 "/>
  </g>
  <g id="_335570216">
   <path class="fil2" d="M178 1239c33,-21 77,-11 98,22 21,34 11,78 -22,99 -33,21 -77,11 -98,-23 -21,-33 -12,-77 22,-98z"/>
   <g>
    <path class="fil3" d="M205 1314c-8,4 -10,14 -5,22 4,7 14,10 22,5 7,-5 10,-15 5,-22 -5,-8 -15,-10 -22,-5l0 0zm-10 13c0,-6 3,-12 8,-15l0 0c9,-5 20,-3 26,6 5,8 2,19 -6,25 -9,5 -20,3 -25,-6 -2,-3 -3,-6 -3,-10z"/>
    <path class="fil3" d="M183 1346l2 -1c10,15 30,20 46,10 15,-9 20,-30 10,-45 -10,-16 -30,-20 -45,-11l-2 -1c17,-11 39,-6 49,11 10,16 5,38 -11,48 -16,10 -38,5 -49,-11z"/>
    <path class="fil3" d="M155 1327c0,-19 10,-38 27,-49 27,-17 63,-9 80,18 17,27 9,63 -18,80l-1 -1c26,-17 34,-51 17,-78 -16,-26 -51,-33 -77,-17 -19,12 -29,36 -25,59l-2 0c0,-4 -1,-8 -1,-12z"/>
    <path class="fil3" d="M141 1327c0,-24 11,-47 33,-61 13,-8 28,-12 43,-11l0 2c-15,-1 -29,3 -42,11 -32,20 -42,64 -22,97 21,33 65,43 98,22 16,-10 27,-26 31,-44 4,-19 1,-37 -9,-53l2 -1c10,16 13,35 9,54 -4,19 -16,35 -32,46 -34,21 -79,11 -100,-23 -8,-12 -11,-25 -11,-39z"/>
   </g>
  </g>
 </g>
</svg>
