<?xml version="1.0" encoding="UTF-8"?>
<!DOCTYPE svg PUBLIC "-//W3C//DTD SVG 1.1//EN" "http://www.w3.org/Graphics/SVG/1.1/DTD/svg11.dtd">
<!-- Creator: CorelDRAW X7 -->
<svg xmlns="http://www.w3.org/2000/svg" xml:space="preserve" width="512px" height="512px" version="1.1" style="shape-rendering:geometricPrecision; text-rendering:geometricPrecision; image-rendering:optimizeQuality; fill-rule:evenodd; clip-rule:evenodd"
viewBox="0 0 512 512"
 xmlns:xlink="http://www.w3.org/1999/xlink">
 <defs>
  <style type="text/css">
   <![CDATA[
    .fil6 {fill:none}
    .fil2 {fill:#2F2E41}
    .fil0 {fill:#3F3D56}
    .fil3 {fill:#575A89}
    .fil1 {fill:#A0616A}
    .fil5 {fill:#D0CDE1}
    .fil4 {fill:#FFB9B9}
   ]]>
  </style>
    <clipPath id="id0">
     <path d="M84 27l365 0 0 480 -365 0 0 -480z"/>
    </clipPath>
 </defs>
 <g id="Layer_x0020_1">
  <metadata id="CorelCorpID_0Corel-Layer"/>
  <g id="_339783248">
   <g style="clip-path:url(#id0)">
    <image x="84" y="27" width="366" height="480" xlink:href="Cara Kerja 1_Images\Cara Kerja 1_ImgID1.png"/>
   </g>
  </g>
  <g id="_339780224">
   <path class="fil0" d="M158 275l0 0c59,0 107,48 107,107l0 0 -168 0 0 -47c0,-33 27,-60 61,-60l0 0z"/>
   <path class="fil1" d="M391 133c0,0 5,64 -2,66 -7,2 -31,16 -71,12 0,0 -38,21 -32,1 6,-19 32,-14 32,-14 0,0 47,-10 49,-17 2,-7 -6,-35 -3,-36 3,-1 27,-12 27,-12z"/>
   <path class="fil2" d="M332 244c0,0 4,92 10,106 5,11 8,48 8,60 1,3 1,4 1,4 0,0 15,0 16,-4 1,-4 4,-47 0,-60 -4,-14 5,-109 5,-109l-40 3z"/>
   <path class="fil2" d="M355 409c0,0 -10,3 -12,7 -2,4 -34,11 -25,16 10,5 40,-4 40,-4 0,0 15,-1 14,-7 -1,-6 -4,-13 -4,-13l-13 1z"/>
   <path class="fil2" d="M382 420c0,0 -10,3 -12,7 -2,4 -34,10 -24,15 10,5 39,-4 39,-4 0,0 16,-1 15,-6 -1,-6 -5,-13 -5,-13l-13 1z"/>
   <path class="fil2" d="M341 242l14 23 23 82c0,0 -3,75 0,75 3,0 19,5 20,0 1,-4 11,-44 6,-70 -4,-17 -6,-34 -7,-51l-2 -46c0,0 10,-17 -1,-20 -11,-3 -53,7 -53,7z"/>
   <circle class="fil1" cx="354" cy="68" r="23"/>
   <path class="fil1" d="M351 83c0,0 4,32 3,33 -1,2 23,-21 23,-21 0,0 -9,-14 -7,-21l-19 9z"/>
   <path class="fil3" d="M406 115c0,0 -28,-20 -29,-24l-20 18 -4 -4c0,0 -16,15 -16,22 0,7 -1,28 2,34 3,5 -9,80 -9,80 0,0 10,9 11,10 1,1 40,-6 40,-6 0,0 20,-2 20,-5 0,-3 -6,-47 -4,-59 2,-12 9,-66 9,-66z"/>
   <path class="fil1" d="M411 142c0,0 5,64 -2,66 -6,1 -31,16 -70,12 0,0 -38,21 -32,1 6,-19 32,-14 32,-14 0,0 47,-10 49,-17 2,-7 -6,-35 -3,-36 3,-1 26,-12 26,-12z"/>
   <path class="fil2" d="M344 56c3,-1 6,-2 10,-1 4,1 7,5 11,9 3,3 8,6 13,5 0,-1 1,-2 1,-3 0,-1 -1,-2 -1,-3 -1,-2 1,-5 -1,-6 0,-1 -1,-1 -2,-1 -1,-2 1,-5 -1,-7 0,0 0,-1 -1,-1 -9,-5 -20,-5 -31,-5 -1,0 -3,1 -3,2 -2,-1 -4,1 -6,2l-3 4c-2,2 -3,4 -4,6 -1,2 -2,5 0,5 -1,0 -3,8 4,7 5,-6 9,-12 14,-13z"/>
   <path class="fil3" d="M390 116l16 -1c0,0 15,30 6,35 -8,5 -31,9 -31,7 0,-2 9,-41 9,-41z"/>
   <path class="fil4" d="M175 123c0,0 5,15 2,20 -2,5 5,15 17,10 12,-4 13,-10 13,-10 0,0 -5,-7 -6,-23l-26 3z"/>
   <path class="fil4" d="M114 274c0,0 -24,12 -13,28 6,9 18,27 27,41 7,11 13,23 17,36l1 6 7 8 14 -16c0,0 -21,-38 -21,-45 0,-8 -16,-31 -16,-31l16 -11c0,0 -18,-21 -32,-16z"/>
   <path class="fil4" d="M192 315c0,0 1,19 2,26 0,6 -5,23 -3,42 0,5 0,11 0,16 0,7 0,14 -1,21l-2 24 20 2 6 -55c0,0 4,-39 2,-51l1 -27c0,0 -15,-5 -25,2z"/>
   <path class="fil2" d="M157 237c0,0 -47,30 -48,40 0,0 27,-3 28,20 0,0 16,-6 20,-7 4,-1 25,-15 25,-15 0,0 9,6 9,17 0,11 -1,29 0,31 0,1 16,-18 28,-2l9 -46c0,0 3,-28 -3,-30l-37 -14 -31 6z"/>
   <circle class="fil4" cx="185" cy="111" r="20"/>
   <path class="fil5" d="M180 147c0,0 23,5 26,-6 0,0 27,6 32,24 5,18 -11,61 -11,62 0,2 13,10 7,14 -6,4 -11,-1 -9,4 3,6 8,7 4,8 -4,2 -28,-19 -47,-14 -19,6 -28,2 -28,2l-8 -73c-1,0 -1,-1 -1,-2 0,-5 3,-9 6,-13 5,-3 10,-7 16,-8 10,-2 11,-3 11,-3l2 5z"/>
   <path class="fil4" d="M159 263c0,0 6,34 14,30 8,-5 -2,-30 -2,-30l-12 0z"/>
   <path class="fil4" d="M186 268c0,0 -10,33 -1,32 10,0 12,-27 12,-27l-11 -5z"/>
   <path class="fil2" d="M150 384c0,0 -5,-6 -8,2 -2,7 -10,16 -10,16 0,0 -16,18 -4,19 11,1 27,-16 27,-16l19 -17c0,0 -7,-15 -10,-15 -2,-1 -2,17 -14,11z"/>
   <path class="fil2" d="M193 439c0,0 -5,1 -4,-4 0,0 -17,9 -13,15 5,7 10,14 10,14 0,0 25,14 27,10 2,-3 2,-10 1,-12 -2,-3 -8,-8 -6,-12 2,-4 -1,-14 -4,-14 -4,0 -11,3 -11,3z"/>
   <path class="fil2" d="M167 95c0,0 7,-14 19,-11 13,3 20,8 20,13 1,4 0,12 0,12 0,0 -1,-10 -10,-8 -9,2 -22,0 -22,0l-2 20c0,0 -3,-4 -5,-2 -3,3 -8,-20 0,-24z"/>
   <path class="fil5" d="M227 164c0,0 -16,43 -15,49 1,5 0,6 -2,7 -2,1 -7,15 -7,15 0,0 -4,8 -6,10 -3,2 -3,8 -3,8 0,0 -7,6 -5,8 1,1 1,3 -2,5 -2,2 -5,5 -4,5 2,1 11,8 14,8 2,-1 -2,-4 2,-5 3,-1 5,-3 4,-4 -2,-1 -6,-1 -2,-2 4,-1 18,-10 23,-21 5,-10 27,-75 14,-84 0,0 -6,-7 -11,1z"/>
   <path class="fil5" d="M153 157l-1 0c-5,2 -9,6 -10,12 -1,7 -3,17 -1,26 2,17 3,24 6,30 2,5 3,3 2,7 0,4 -4,1 0,6 3,5 5,4 4,7 -2,2 -4,2 -1,6 3,3 3,4 3,6 1,1 3,11 3,11 0,0 11,-3 17,-2 0,0 -6,-9 -4,-11 1,-2 3,-3 1,-5 -2,-2 -5,-1 -2,-3 3,-2 -3,-23 -3,-23l-14 -67z"/>
  </g>
  <rect class="fil6" width="512" height="512"/>
 </g>
</svg>
