<?xml version="1.0" encoding="UTF-8"?>
<!DOCTYPE svg PUBLIC "-//W3C//DTD SVG 1.1//EN" "http://www.w3.org/Graphics/SVG/1.1/DTD/svg11.dtd">
<!-- Creator: CorelDRAW X7 -->
<svg xmlns="http://www.w3.org/2000/svg" xml:space="preserve" width="512px" height="512px" version="1.1" style="shape-rendering:geometricPrecision; text-rendering:geometricPrecision; image-rendering:optimizeQuality; fill-rule:evenodd; clip-rule:evenodd"
viewBox="0 0 512 512"
 xmlns:xlink="http://www.w3.org/1999/xlink">
 <defs>
  <style type="text/css">
   <![CDATA[
    .fil3 {fill:none}
    .fil0 {fill:#3F3D56}
    .fil2 {fill:#86B5E1}
    .fil1 {fill:#D0CDE1}
   ]]>
  </style>
    <clipPath id="id0">
     <path d="M297 96l199 0 0 250 -199 0 0 -250z"/>
    </clipPath>
    <clipPath id="id1">
     <path d="M57 27l143 0 0 266 -143 0 0 -266z"/>
    </clipPath>
    <clipPath id="id2">
     <path d="M101 235l369 0 0 272 -369 0 0 -272z"/>
    </clipPath>
 </defs>
 <g id="Layer_x0020_1">
  <metadata id="CorelCorpID_0Corel-Layer"/>
  <g id="_324872928">
   <g style="clip-path:url(#id0)">
    <image x="297" y="96" width="199" height="251" xlink:href="Cara Kerja 2_Images\Cara Kerja 2_ImgID1.png"/>
   </g>
  </g>
  <g id="_324870120">
   <path class="fil0" d="M468 118l-1 0 0 -2 1 0c0,0 0,0 0,0l0 -8c0,0 0,0 0,0l-1 0 0 -5c0,0 0,0 0,0 0,-5 -4,-10 -9,-10 0,0 0,0 0,0l-1 0 0 -1c0,0 0,0 -1,0l-8 0c0,0 0,0 0,0l0 1 -143 0c0,0 0,0 0,0 -5,0 -10,5 -10,10 0,0 0,0 0,0l0 204c0,0 0,0 0,0 0,5 5,10 10,10 0,0 0,0 0,0l153 0c0,0 0,0 0,0 5,0 9,-5 9,-10 0,0 0,0 0,0l0 -180 1 0c0,0 1,-1 1,-1l0 -8c0,0 -1,0 -1,0 0,0 0,0 0,0z"/>
   <path class="fil1" d="M305 100l154 0c1,0 2,0 2,1l0 206c0,1 -1,2 -2,2l-154 0c-1,0 -2,-1 -2,-2l0 -206c0,-1 1,-1 2,-1z"/>
   <path class="fil0" d="M365 202l25 0c0,0 1,1 1,2l0 5c0,1 -1,1 -1,1l-25 0c-1,0 -1,0 -1,-1l0 -5c0,-1 0,-2 1,-2z"/>
   <path class="fil0" d="M333 140l89 0c1,0 2,0 2,1l0 1c0,1 -1,1 -2,1l-89 0c-1,0 -2,0 -2,-1l0 -1c0,-1 1,-1 2,-1z"/>
   <path class="fil0" d="M333 151l89 0c1,0 2,0 2,1l0 1c0,1 -1,1 -2,1l-89 0c-1,0 -2,0 -2,-1l0 -1c0,-1 1,-1 2,-1z"/>
   <path class="fil0" d="M333 162l89 0c1,0 2,0 2,1l0 1c0,0 -1,1 -2,1l-89 0c-1,0 -2,-1 -2,-1l0 -1c0,-1 1,-1 2,-1z"/>
   <path class="fil0" d="M333 172l89 0c1,0 2,1 2,2l0 0c0,1 -1,2 -2,2l-89 0c-1,0 -2,-1 -2,-2l0 0c0,-1 1,-2 2,-2z"/>
   <path class="fil0" d="M333 183l89 0c1,0 2,1 2,2l0 0c0,1 -1,2 -2,2l-89 0c-1,0 -2,-1 -2,-2l0 0c0,-1 1,-2 2,-2z"/>
   <circle class="fil2" cx="374" cy="272" r="29"/>
   <path class="fil0" d="M383 294c0,0 0,0 0,0 -20,0 -36,-16 -36,-36 0,-20 16,-36 36,-36 19,0 36,16 36,36 0,20 -17,36 -36,36l0 0zm36 -107c-20,0 -35,16 -35,35 0,19 15,35 35,35 19,0 34,-16 34,-35 0,-19 -16,-35 -35,-35 -20,0 -35,16 -35,36 0,0 0,0 0,0l36 -36z"/>
  </g>
  <g id="_324870552">
   <g style="clip-path:url(#id1)">
    <image x="57" y="27" width="142" height="266" xlink:href="Cara Kerja 2_Images\Cara Kerja 2_ImgID2.png"/>
   </g>
  </g>
  <g id="_335482736">
   <path class="fil0" d="M176 78l-2 0 0 -37c0,0 0,0 0,0 0,-12 -9,-22 -21,-22 0,0 0,0 0,0l-79 0c0,0 0,0 0,0 -12,0 -22,10 -22,22 0,0 0,0 0,0l0 204c0,0 0,0 0,0 0,12 10,22 22,22 0,0 0,0 0,0l79 0c0,0 0,0 0,0 12,0 21,-10 21,-22 0,0 0,0 0,0l0 -140 2 0 0 -27z"/>
   <path class="fil1" d="M170 42l0 204c0,0 0,0 0,0 0,9 -7,17 -16,17l-80 0c-9,0 -16,-8 -16,-17 0,0 0,0 0,0l0 -204c0,-9 7,-16 16,-16l10 0c0,1 -1,2 -1,3 0,4 4,7 8,7 0,0 0,0 0,0l45 0c0,0 0,0 0,0 5,0 8,-3 8,-7 0,-1 0,-2 -1,-3l11 0c9,0 16,7 16,16l0 0z"/>
   <path class="fil0" d="M105 146l18 0c1,0 2,1 2,2l0 3c0,1 -1,2 -2,2l-18 0c-1,0 -2,-1 -2,-2l0 -3c0,-1 1,-2 2,-2z"/>
   <path class="fil0" d="M79 97l70 0c1,0 1,1 1,2l0 0c0,0 0,1 -1,1l-70 0c-1,0 -1,-1 -1,-1l0 0c0,-1 0,-2 1,-2z"/>
   <path class="fil0" d="M79 106l70 0c1,0 1,0 1,1l0 0c0,1 0,1 -1,1l-70 0c-1,0 -1,0 -1,-1l0 0c0,-1 0,-1 1,-1z"/>
   <path class="fil0" d="M79 114l70 0c1,0 1,1 1,2l0 0c0,0 0,1 -1,1l-70 0c-1,0 -1,-1 -1,-1l0 0c0,-1 0,-2 1,-2z"/>
   <path class="fil0" d="M79 123l70 0c1,0 1,0 1,1l0 0c0,1 0,2 -1,2l-70 0c-1,0 -1,-1 -1,-2l0 0c0,-1 0,-1 1,-1z"/>
   <path class="fil0" d="M79 131l70 0c1,0 1,1 1,2l0 0c0,1 0,1 -1,1l-70 0c-1,0 -1,0 -1,-1l0 0c0,-1 0,-2 1,-2z"/>
   <circle class="fil2" cx="108" cy="212" r="23"/>
   <path class="fil0" d="M114 230zm0 -57c-15,0 -27,13 -27,28 0,15 12,28 27,28 16,0 28,-13 28,-28 0,-15 -12,-28 -28,-28l0 0z"/>
  </g>
  <g id="_335479664">
   <g style="clip-path:url(#id2)">
    <image x="101" y="235" width="369" height="272" xlink:href="Cara Kerja 2_Images\Cara Kerja 2_ImgID3.png"/>
   </g>
  </g>
  <g id="_335477000">
   <rect class="fil2" x="104" y="260" width="311" height="212"/>
   <path class="fil0" d="M432 236l-306 0c-2,0 -3,1 -3,3l0 207c0,0 0,0 0,0 0,2 1,4 3,4 0,0 0,0 0,0l306 0c0,0 0,0 0,0 2,0 4,-2 4,-4 0,0 0,0 0,0l0 -207c0,-2 -2,-3 -4,-3l0 0zm5 214c0,0 0,0 0,0 0,1 0,1 -1,1 0,0 0,0 0,0l-306 0c0,0 0,0 0,0 -1,0 -1,0 -1,-1 0,0 0,0 0,0l0 -207c0,-1 0,-1 1,-1l306 0c1,0 1,0 1,1l0 207z"/>
   <path class="fil0" d="M141 382l136 0c1,0 2,1 2,2l0 12c0,1 -1,2 -2,2l-136 0c-1,0 -2,-1 -2,-2l0 -12c0,-1 1,-2 2,-2z"/>
   <path class="fil0" d="M406 368l-44 0c0,0 0,0 0,0 -2,0 -4,2 -4,4 0,0 0,0 0,0l0 35c0,0 0,0 0,0 0,2 2,3 4,3 0,0 0,0 0,0l44 0c0,0 0,0 0,0 2,0 4,-1 4,-3 0,0 0,0 0,0l0 -35c0,0 0,0 0,0 0,-2 -2,-4 -4,-4 0,0 0,0 0,0l0 0zm5 42c0,1 0,2 -1,2l-45 0c0,0 -1,-1 -1,-2l0 -34c0,0 0,0 0,0 0,-1 1,-2 1,-2 0,0 0,0 0,0l45 0c0,0 0,0 0,0 1,0 1,1 1,2 0,0 0,0 0,0l0 34z"/>
   <path class="fil0" d="M371 376l26 0c1,0 2,1 2,2l0 3c0,1 -1,1 -2,1l-26 0c-1,0 -2,0 -2,-1l0 -3c0,-1 1,-2 2,-2z"/>
   <path class="fil0" d="M371 386l26 0c1,0 2,1 2,2l0 3c0,1 -1,1 -2,1l-26 0c-1,0 -2,0 -2,-1l0 -3c0,-1 1,-2 2,-2z"/>
   <path class="fil0" d="M371 396l26 0c1,0 2,1 2,2l0 2c0,1 -1,2 -2,2l-26 0c-1,0 -2,-1 -2,-2l0 -2c0,-1 1,-2 2,-2z"/>
   <path class="fil0" d="M144 250l61 0c1,0 2,1 2,2l0 24c0,1 -1,2 -2,2l-61 0c-1,0 -2,-1 -2,-2l0 -24c0,-1 1,-2 2,-2z"/>
   <path class="fil2" d="M180 264c0,5 -3,9 -5,9 -3,0 -5,-4 -5,-9 0,-5 5,-9 5,-9 0,0 5,4 5,9z"/>
  </g>
  <rect class="fil3" width="512" height="512"/>
 </g>
</svg>
