<?xml version="1.0" encoding="UTF-8"?>
<!DOCTYPE svg PUBLIC "-//W3C//DTD SVG 1.1//EN" "http://www.w3.org/Graphics/SVG/1.1/DTD/svg11.dtd">
<!-- Creator: CorelDRAW X7 -->
<svg xmlns="http://www.w3.org/2000/svg" xml:space="preserve" width="1080px" height="3528px" version="1.1" style="shape-rendering:geometricPrecision; text-rendering:geometricPrecision; image-rendering:optimizeQuality; fill-rule:evenodd; clip-rule:evenodd"
viewBox="0 0 1080 3528"
 xmlns:xlink="http://www.w3.org/1999/xlink">
 <defs>
  <style type="text/css">
   <![CDATA[
    .fil0 {fill:#457ABE}
    .fil2 {fill:#86B5E1;fill-rule:nonzero}
    .fil1 {fill:white;fill-rule:nonzero}
    .fil3 {fill:white;fill-rule:nonzero}
   ]]>
  </style>
 </defs>
 <g id="Layer_x0020_1">
  <metadata id="CorelCorpID_0Corel-Layer"/>
  <rect class="fil0" width="1080" height="3528"/>
  <g id="_339752384">
   <polygon class="fil1" points="240,446 245,451 240,456 244,460 249,455 255,460 259,456 253,451 259,446 255,442 249,447 244,442 "/>
   <polygon class="fil1" points="197,446 203,451 197,456 201,460 207,455 212,460 216,456 211,451 216,446 212,442 207,447 201,442 "/>
   <polygon class="fil1" points="155,446 160,451 155,456 159,460 164,455 169,460 173,456 168,451 173,446 169,442 164,447 159,442 "/>
   <polygon class="fil1" points="112,446 117,451 112,456 116,460 121,455 127,460 131,456 125,451 131,446 127,442 121,447 116,442 "/>
   <polygon class="fil1" points="240,399 245,404 240,410 244,414 249,408 255,414 259,410 253,404 259,399 255,395 249,400 244,395 "/>
   <polygon class="fil1" points="197,399 203,404 197,410 201,414 207,408 212,414 216,410 211,404 216,399 212,395 207,400 201,395 "/>
   <polygon class="fil1" points="155,399 160,404 155,410 159,414 164,408 169,414 173,410 168,404 173,399 169,395 164,400 159,395 "/>
   <polygon class="fil1" points="112,399 117,404 112,410 116,414 121,408 127,414 131,410 125,404 131,399 127,395 121,400 116,395 "/>
   <polygon class="fil1" points="240,356 245,361 240,367 244,371 249,365 255,371 259,367 253,361 259,356 255,352 249,357 244,352 "/>
   <polygon class="fil1" points="197,356 203,361 197,367 201,371 207,365 212,371 216,367 211,361 216,356 212,352 207,357 201,352 "/>
   <polygon class="fil1" points="155,356 160,361 155,367 159,371 164,365 169,371 173,367 168,361 173,356 169,352 164,357 159,352 "/>
   <polygon class="fil1" points="112,356 117,361 112,367 116,371 121,365 127,371 131,367 125,361 131,356 127,352 121,357 116,352 "/>
   <polygon class="fil1" points="240,310 245,315 240,320 244,324 249,319 255,324 259,320 253,315 259,310 255,306 249,311 244,306 "/>
   <polygon class="fil1" points="197,310 203,315 197,320 201,324 207,319 212,324 216,320 211,315 216,310 212,306 207,311 201,306 "/>
   <polygon class="fil1" points="155,310 160,315 155,320 159,324 164,319 169,324 173,320 168,315 173,310 169,306 164,311 159,306 "/>
   <polygon class="fil1" points="112,310 117,315 112,320 116,324 121,319 127,324 131,320 125,315 131,310 127,306 121,311 116,306 "/>
   <polygon class="fil1" points="240,271 245,277 240,282 244,286 249,281 255,286 259,282 253,277 259,271 255,267 249,273 244,267 "/>
   <polygon class="fil1" points="197,271 203,277 197,282 201,286 207,281 212,286 216,282 211,277 216,271 212,267 207,273 201,267 "/>
   <polygon class="fil1" points="155,271 160,277 155,282 159,286 164,281 169,286 173,282 168,277 173,271 169,267 164,273 159,267 "/>
   <polygon class="fil1" points="112,271 117,277 112,282 116,286 121,281 127,286 131,282 125,277 131,271 127,267 121,273 116,267 "/>
  </g>
  <g id="_339783128">
   <polygon class="fil2" points="125,1211 178,1158 231,1211 178,1263 "/>
   <path class="fil1" d="M125 1146c1,2 2,4 3,7l0 1c1,5 4,9 9,10 6,1 11,6 12,12l0 1c1,5 5,9 9,10l0 0c7,1 11,6 12,12l0 1c1,5 5,9 9,10l1 0c6,1 11,6 12,12l0 1c0,5 4,9 8,10l1 0c2,0 4,1 6,2l-3 3c-1,-1 -2,-1 -3,-2l-1 0c-6,-1 -11,-6 -12,-12l0 -1c-1,-5 -4,-9 -9,-10l0 0c-7,-1 -11,-6 -12,-12l0 -1c-1,-5 -5,-9 -9,-10l0 0c-7,-1 -11,-6 -12,-12l-1 -2c0,-4 -4,-8 -9,-9 -6,-1 -11,-6 -12,-12l0 -2c0,-1 -1,-3 -1,-4l2 -3z"/>
   <path class="fil1" d="M108 1162c1,2 2,4 3,6l0 2c1,5 4,8 9,9 6,1 11,6 12,12l0 2c1,5 5,8 9,9l0 0c7,1 11,6 12,13l0 1c1,5 5,8 9,9l1 0c6,2 11,7 12,13l0 1c0,5 4,8 8,9l1 1c2,0 4,1 6,2l-3 2c-1,0 -2,-1 -3,-1l-1 0c-6,-1 -11,-6 -12,-13l0 -1c-1,-4 -4,-8 -9,-9l0 0c-7,-1 -11,-6 -12,-13l0 -1c-1,-5 -5,-8 -9,-9l0 0c-7,-1 -11,-6 -12,-13l-1 -1c0,-5 -4,-9 -9,-9 -6,-1 -11,-6 -12,-12l0 -2c0,-2 -1,-3 -1,-5l2 -2z"/>
   <path class="fil1" d="M175 1101l0 1c0,4 4,8 9,9 6,1 11,6 12,12l0 2c1,4 4,8 9,9l0 0c6,1 11,6 12,12l0 2c1,4 4,8 9,9l0 0c7,1 11,6 12,13l0 1c1,4 4,8 9,9l1 0c4,1 8,4 10,8l-3 3c-1,-4 -4,-6 -8,-7l-1 0c-6,-2 -10,-7 -11,-13l0 -1c-1,-5 -5,-8 -9,-9l-1 0c-6,-2 -11,-7 -11,-13l-1 -1c0,-5 -4,-9 -9,-9l0 0c-6,-2 -11,-7 -12,-13l0 -1c-1,-5 -4,-9 -9,-10 -6,-1 -10,-5 -12,-10l4 -3z"/>
   <path class="fil1" d="M158 1117l0 0c0,5 4,9 9,10 6,1 11,6 12,12l0 1c1,5 4,9 9,10l0 0c6,1 11,6 12,12l0 1c1,5 4,9 9,10l0 0c7,1 11,6 12,12l0 1c1,5 4,9 9,10l1 0c4,1 8,4 10,8l-3 2c-1,-3 -4,-6 -8,-7l-1 0c-6,-1 -10,-6 -11,-12l0 -1c-1,-5 -5,-9 -9,-10l-1 0c-6,-1 -11,-6 -11,-12l-1 -1c0,-5 -4,-9 -9,-10l0 0c-6,-1 -11,-6 -12,-12l0 -2c-1,-4 -4,-8 -9,-9 -6,-1 -10,-5 -12,-11l4 -2z"/>
   <path class="fil1" d="M141 1132l0 1c0,5 4,8 9,9 6,1 11,6 12,12l0 2c1,5 4,8 9,9l0 0c6,2 11,6 12,13l0 1c1,5 4,8 9,9l1 1c6,1 10,6 11,12l0 1c1,5 4,9 9,9l1 1c4,1 8,3 10,7l-3 3c-1,-4 -4,-6 -8,-7l-1 0c-6,-1 -10,-6 -11,-13l0 -1c-1,-4 -5,-8 -9,-9l-1 0c-6,-1 -11,-6 -11,-12l-1 -2c0,-5 -4,-8 -9,-9l0 0c-6,-1 -11,-6 -12,-12l0 -2c-1,-5 -4,-8 -9,-9 -6,-1 -10,-5 -12,-11l4 -3z"/>
  </g>
  <g id="_339780392">
   <polygon class="fil2" points="829,2820 882,2767 935,2820 882,2873 "/>
   <path class="fil1" d="M829 2756c1,2 2,4 3,6l0 2c1,5 4,8 9,9 6,1 11,6 12,12l0 2c1,5 4,8 9,9l0 0c7,1 11,6 12,13l0 1c1,5 5,8 9,9l1 0c6,2 11,7 11,13l1 1c0,5 4,8 8,9l1 1c2,0 4,1 6,2l-3 2c-1,0 -2,-1 -4,-1l0 0c-7,-1 -11,-6 -12,-13l0 -1c-1,-4 -4,-8 -9,-9l-1 0c-6,-1 -10,-6 -11,-13l0 -1c-1,-5 -5,-8 -9,-9l-1 0c-6,-1 -10,-6 -11,-12l-1 -2c0,-5 -4,-9 -9,-9 -6,-1 -11,-6 -12,-12l0 -2c0,-2 -1,-3 -2,-5l3 -2z"/>
   <path class="fil1" d="M812 2772c1,1 2,4 3,6l0 2c1,4 4,8 9,9 6,1 11,6 12,12l0 2c1,4 4,8 9,9l0 0c7,1 11,6 12,12l0 2c1,4 5,8 9,9l1 0c6,1 11,6 11,13l1 1c0,4 4,8 8,9l1 0c2,1 4,1 6,3l-3 2c-1,-1 -2,-1 -4,-1l0 0c-7,-2 -11,-7 -12,-13l0 -1c-1,-5 -4,-9 -9,-9l-1 -1c-6,-1 -10,-6 -11,-12l0 -1c-1,-5 -5,-9 -9,-10l-1 0c-6,-1 -10,-6 -11,-12l-1 -1c0,-5 -4,-9 -9,-10 -6,-1 -11,-6 -12,-12l0 -2c0,-1 -1,-3 -2,-4l3 -2z"/>
   <path class="fil1" d="M878 2711l0 0c1,5 5,9 10,10 6,1 11,6 11,12l1 1c0,5 4,9 9,10l0 0c6,1 11,6 12,12l0 1c1,5 4,9 9,10l0 0c7,1 11,6 12,12l0 1c1,5 4,9 9,10l1 0c4,1 8,4 10,8l-3 2c-1,-3 -4,-6 -8,-7l-1 0c-6,-1 -11,-6 -11,-12l0 -1c-1,-5 -5,-9 -9,-10l-1 0c-6,-1 -11,-6 -12,-12l0 -1c0,-5 -4,-9 -9,-10l0 0c-6,-1 -11,-6 -12,-12l0 -2c-1,-4 -4,-8 -9,-9 -6,-1 -10,-5 -12,-10l3 -3z"/>
   <path class="fil1" d="M861 2726l1 1c0,5 4,8 9,9 6,1 11,6 12,13l0 1c0,5 4,8 9,9l0 0c6,2 11,7 12,13l0 1c1,5 4,8 9,9l0 1c7,1 11,6 12,12l0 1c1,5 4,9 9,9l1 1c4,1 8,3 10,7l-3 3c-1,-4 -4,-6 -8,-7l-1 0c-6,-1 -11,-6 -11,-12l0 -2c-1,-4 -5,-8 -9,-9l-1 0c-6,-1 -11,-6 -12,-12l0 -2c0,-4 -4,-8 -9,-9l0 0c-6,-1 -11,-6 -12,-12l0 -2c-1,-5 -4,-8 -9,-9 -6,-1 -10,-5 -12,-11l3 -3z"/>
   <path class="fil1" d="M844 2742l1 1c0,4 4,8 9,9 6,1 11,6 12,12l0 2c0,4 4,8 9,9l0 0c6,1 11,6 12,12l0 2c1,4 4,8 9,9l0 0c7,1 11,6 12,13l0 1c1,4 4,8 9,9l1 0c4,1 8,4 10,8l-3 2c-1,-3 -4,-5 -8,-6l-1 0c-6,-2 -11,-7 -11,-13l0 -1c-1,-5 -5,-8 -9,-9l-1 0c-6,-2 -11,-7 -12,-13l0 -1c0,-5 -4,-9 -9,-10l0 0c-6,-1 -11,-6 -12,-12l0 -1c-1,-5 -4,-9 -9,-10 -6,-1 -10,-5 -12,-10l3 -3z"/>
  </g>
  <g id="_339779912">
   <polygon class="fil1" points="159,1622 147,1614 138,1621 136,1619 147,1611 159,1619 170,1611 182,1619 193,1611 204,1619 215,1611 227,1619 238,1611 249,1619 260,1611 261,1613 249,1622 238,1614 227,1622 215,1614 204,1622 193,1614 182,1622 170,1614 "/>
   <polygon class="fil1" points="159,1639 147,1630 138,1638 136,1636 147,1627 159,1635 170,1627 182,1635 193,1627 204,1635 215,1627 227,1635 238,1627 249,1635 260,1628 261,1630 249,1639 238,1630 227,1639 215,1630 204,1639 193,1630 182,1639 170,1630 "/>
   <polygon class="fil1" points="159,1655 147,1647 138,1655 136,1653 147,1644 159,1652 170,1644 182,1652 193,1644 204,1652 215,1644 227,1652 238,1644 249,1652 260,1644 261,1647 249,1655 238,1647 227,1655 215,1647 204,1655 193,1647 182,1655 170,1647 "/>
   <polygon class="fil1" points="159,1672 147,1664 138,1671 136,1669 147,1660 159,1669 170,1660 182,1669 193,1660 204,1669 215,1660 227,1669 238,1660 249,1669 260,1661 261,1663 249,1672 238,1664 227,1672 215,1664 204,1672 193,1664 182,1672 170,1664 "/>
  </g>
  <g id="_339778952">
   <path class="fil2" d="M898 1299c33,-21 77,-11 98,22 21,34 11,78 -22,99 -33,21 -77,11 -98,-23 -21,-33 -11,-77 22,-98z"/>
   <g>
    <path class="fil3" d="M925 1374c-8,4 -10,14 -5,22 4,7 14,10 22,5 7,-5 10,-15 5,-22 -5,-8 -15,-10 -22,-5l0 0zm-10 13c0,-6 3,-12 9,-15l0 0c8,-5 19,-3 25,6 5,8 3,19 -6,25 -8,5 -20,2 -25,-6 -2,-3 -3,-6 -3,-10z"/>
    <path class="fil3" d="M904 1406l1 -1c10,15 31,20 46,10 15,-10 20,-30 10,-45 -9,-16 -30,-20 -45,-11l-1 -1c16,-11 38,-6 48,11 10,16 5,38 -11,48 -16,10 -38,5 -48,-11z"/>
    <path class="fil3" d="M875 1387c0,-19 10,-38 27,-49 27,-17 63,-9 80,18 17,27 9,63 -18,80l-1 -1c26,-17 34,-52 18,-78 -17,-26 -51,-33 -78,-17 -19,12 -29,36 -24,59l-2 0c-1,-4 -2,-8 -2,-12z"/>
    <path class="fil3" d="M861 1387c0,-24 12,-47 34,-61 12,-8 27,-12 43,-11l-1 2c-14,-1 -29,3 -41,11 -33,20 -43,64 -22,97 20,33 64,43 97,22 16,-10 27,-26 31,-44 4,-19 1,-37 -9,-53l2 -2c10,17 13,36 9,55 -4,19 -15,35 -32,46 -34,21 -79,11 -100,-23 -8,-12 -11,-25 -11,-39z"/>
   </g>
  </g>
  <g id="_339778280">
   <polygon class="fil1" points="899,759 887,751 877,759 875,757 886,748 899,756 909,748 921,756 932,748 943,756 954,748 966,756 977,748 988,756 999,749 1000,751 988,759 977,751 966,759 954,751 943,759 932,751 921,759 909,751 "/>
   <polygon class="fil1" points="899,776 887,768 877,775 875,773 886,765 899,773 909,765 921,773 932,765 943,773 954,765 966,773 977,765 988,773 999,765 1000,767 988,776 977,768 966,776 954,768 943,776 932,768 921,776 909,768 "/>
   <polygon class="fil1" points="899,792 887,784 877,792 875,790 886,781 899,789 909,781 921,789 932,781 943,789 954,781 966,789 977,781 988,789 999,782 1000,784 988,792 977,784 966,792 954,784 943,792 932,784 921,792 909,784 "/>
   <polygon class="fil1" points="899,809 887,801 877,808 875,806 886,798 899,806 909,798 921,806 932,798 943,806 954,798 966,806 977,798 988,806 999,798 1000,800 988,809 977,801 966,809 954,801 943,809 932,801 921,809 909,801 "/>
  </g>
  <g id="_339775472">
   <polygon class="fil1" points="974,2104 979,2109 974,2115 978,2119 983,2113 989,2119 993,2115 987,2109 993,2104 989,2100 983,2105 978,2100 "/>
   <polygon class="fil1" points="931,2104 937,2109 931,2115 935,2119 941,2113 946,2119 950,2115 945,2109 950,2104 946,2100 941,2105 935,2100 "/>
   <polygon class="fil1" points="889,2104 894,2109 889,2115 893,2119 898,2113 904,2119 908,2115 902,2109 908,2104 904,2100 898,2105 893,2100 "/>
   <polygon class="fil1" points="846,2104 852,2109 846,2115 850,2119 856,2113 861,2119 865,2115 860,2109 865,2104 861,2100 856,2105 850,2100 "/>
   <polygon class="fil1" points="974,2057 979,2063 974,2068 978,2072 983,2067 989,2072 993,2068 987,2063 993,2057 989,2053 983,2059 978,2053 "/>
   <polygon class="fil1" points="931,2057 937,2063 931,2068 935,2072 941,2067 946,2072 950,2068 945,2063 950,2057 946,2053 941,2059 935,2053 "/>
   <polygon class="fil1" points="889,2057 894,2063 889,2068 893,2072 898,2067 904,2072 908,2068 902,2063 908,2057 904,2053 898,2059 893,2053 "/>
   <polygon class="fil1" points="846,2057 852,2063 846,2068 850,2072 856,2067 861,2072 865,2068 860,2063 865,2057 861,2053 856,2059 850,2053 "/>
   <polygon class="fil1" points="974,2014 979,2020 974,2025 978,2029 983,2024 989,2029 993,2025 987,2020 993,2014 989,2010 983,2016 978,2010 "/>
   <polygon class="fil1" points="931,2014 937,2020 931,2025 935,2029 941,2024 946,2029 950,2025 945,2020 950,2014 946,2010 941,2016 935,2010 "/>
   <polygon class="fil1" points="889,2014 894,2020 889,2025 893,2029 898,2024 904,2029 908,2025 902,2020 908,2014 904,2010 898,2016 893,2010 "/>
   <polygon class="fil1" points="846,2014 852,2020 846,2025 850,2029 856,2024 861,2029 865,2025 860,2020 865,2014 861,2010 856,2016 850,2010 "/>
   <polygon class="fil1" points="974,1968 979,1973 974,1979 978,1983 983,1977 989,1983 993,1979 987,1973 993,1968 989,1964 983,1969 978,1964 "/>
   <polygon class="fil1" points="931,1968 937,1973 931,1979 935,1983 941,1977 946,1983 950,1979 945,1973 950,1968 946,1964 941,1969 935,1964 "/>
   <polygon class="fil1" points="889,1968 894,1973 889,1979 893,1983 898,1977 904,1983 908,1979 902,1973 908,1968 904,1964 898,1969 893,1964 "/>
   <polygon class="fil1" points="846,1968 852,1973 846,1979 850,1983 856,1977 861,1983 865,1979 860,1973 865,1968 861,1964 856,1969 850,1964 "/>
   <polygon class="fil1" points="974,1929 979,1935 974,1940 978,1944 983,1939 989,1944 993,1940 987,1935 993,1929 989,1925 983,1931 978,1925 "/>
   <polygon class="fil1" points="931,1929 937,1935 931,1940 935,1944 941,1939 946,1944 950,1940 945,1935 950,1929 946,1925 941,1931 935,1925 "/>
   <polygon class="fil1" points="889,1929 894,1935 889,1940 893,1944 898,1939 904,1944 908,1940 902,1935 908,1929 904,1925 898,1931 893,1925 "/>
   <polygon class="fil1" points="846,1929 852,1935 846,1940 850,1944 856,1939 861,1944 865,1940 860,1935 865,1929 861,1925 856,1931 850,1925 "/>
  </g>
  <g id="_339773936">
   <path class="fil2" d="M165 2935c33,-21 77,-11 98,22 21,34 11,78 -22,99 -34,21 -78,11 -99,-23 -21,-33 -11,-77 23,-98z"/>
   <g>
    <path class="fil3" d="M191 3010c-7,5 -9,14 -5,22 5,8 15,10 23,5 7,-5 9,-15 5,-22 -5,-8 -15,-10 -23,-5l0 0zm-9 13c0,-6 3,-12 8,-15l0 0c9,-5 20,-3 25,6 6,8 3,19 -5,25 -9,5 -20,3 -25,-6 -2,-3 -3,-6 -3,-10z"/>
    <path class="fil3" d="M170 3042l2 -1c10,15 30,20 46,10 15,-9 20,-30 10,-45 -10,-16 -30,-20 -46,-11l-1 -1c17,-11 38,-6 49,11 10,16 5,38 -11,48 -17,10 -38,6 -49,-11z"/>
    <path class="fil3" d="M142 3024c0,-20 10,-39 27,-50 27,-17 63,-9 80,18 17,27 9,63 -18,80l-1 -1c26,-17 34,-51 17,-77 -16,-27 -51,-34 -77,-18 -20,13 -30,36 -25,59l-2 0c-1,-4 -1,-8 -1,-11z"/>
    <path class="fil3" d="M127 3024c0,-25 12,-48 34,-62 13,-8 28,-12 43,-11l0 2c-15,-1 -29,3 -42,11 -33,21 -42,64 -22,97 21,33 65,43 98,22 16,-10 27,-26 31,-44 4,-18 1,-37 -9,-53l1 -1c11,16 14,35 10,54 -4,19 -16,35 -32,46 -34,21 -79,11 -100,-23 -8,-12 -12,-25 -12,-38z"/>
   </g>
  </g>
  <g id="_339774032">
   <polygon class="fil1" points="165,2395 153,2387 144,2395 142,2393 153,2384 165,2392 176,2384 188,2392 198,2384 210,2392 221,2384 232,2392 244,2384 255,2392 266,2385 267,2387 255,2395 244,2387 233,2395 221,2387 210,2395 198,2387 188,2395 176,2387 "/>
   <polygon class="fil1" points="165,2412 153,2404 144,2411 142,2409 153,2401 165,2409 176,2401 188,2409 198,2401 210,2409 221,2401 232,2409 244,2401 255,2409 266,2401 267,2403 255,2412 244,2404 233,2412 221,2404 210,2412 198,2404 188,2412 176,2404 "/>
   <polygon class="fil1" points="165,2429 153,2420 144,2428 142,2426 153,2417 165,2425 176,2417 188,2425 198,2417 210,2425 221,2417 232,2425 244,2417 255,2425 266,2418 267,2420 255,2429 244,2420 233,2429 221,2420 210,2429 198,2420 188,2429 176,2420 "/>
   <polygon class="fil1" points="165,2445 153,2437 144,2445 142,2442 153,2434 165,2442 176,2434 188,2442 198,2434 210,2442 221,2434 232,2442 244,2434 255,2442 266,2434 267,2437 255,2445 244,2437 233,2445 221,2437 210,2445 198,2437 188,2445 176,2437 "/>
  </g>
 </g>
</svg>
