<?xml version="1.0" encoding="UTF-8"?>
<!DOCTYPE svg PUBLIC "-//W3C//DTD SVG 1.1//EN" "http://www.w3.org/Graphics/SVG/1.1/DTD/svg11.dtd">
<!-- Creator: CorelDRAW X7 -->
<svg xmlns="http://www.w3.org/2000/svg" xml:space="preserve" width="512px" height="512px" version="1.1" style="shape-rendering:geometricPrecision; text-rendering:geometricPrecision; image-rendering:optimizeQuality; fill-rule:evenodd; clip-rule:evenodd"
viewBox="0 0 512 512"
 xmlns:xlink="http://www.w3.org/1999/xlink">
 <defs>
  <style type="text/css">
   <![CDATA[
    .fil6 {fill:none}
    .fil5 {fill:#2F2E41}
    .fil1 {fill:#3F3D56}
    .fil0 {fill:#86B5E1}
    .fil4 {fill:#A0616A}
    .fil2 {fill:#D0CDE1}
    .fil3 {fill:#F2F2F2}
   ]]>
  </style>
    <clipPath id="id0">
     <path d="M9 94l539 0 0 363 -539 0 0 -363z"/>
    </clipPath>
 </defs>
 <g id="Layer_x0020_1">
  <metadata id="CorelCorpID_0Corel-Layer"/>
  <g id="_333582944">
   <g style="clip-path:url(#id0)">
    <image x="9" y="94" width="539" height="363" xlink:href="Cara Kerja 3_Images\Cara Kerja 3_ImgID1.png"/>
   </g>
  </g>
  <g id="_307583848">
   <path class="fil0" d="M237 373l-116 0 0 0c0,-1 -2,-24 6,-33 1,-1 3,-2 6,-2 5,-1 8,1 10,3 5,3 8,4 19,-9 12,-15 25,-19 33,-17 4,1 8,5 9,9 1,4 0,8 0,12 0,3 0,6 1,7 1,1 4,1 8,0 8,-1 19,0 24,7 3,4 6,11 0,23l0 0zm-226 -33l115 0c4,-9 5,-16 1,-22 -6,-6 -16,-8 -24,-6 -5,1 -7,0 -8,-1 -2,-1 -2,-4 -2,-8 0,-3 1,-7 0,-11 -1,-5 -4,-8 -9,-9 -7,-1 -20,2 -31,16 -12,15 -16,13 -20,10 -3,-2 -6,-3 -10,-3 -2,0 -4,1 -6,2 104,40 104,61 105,64l-111 -32z"/>
   <g>
    <polygon class="fil1" points="486,390 84,390 84,127 425,190 "/>
    <path class="fil2" d="M223 373l-87 0c0,0 -2,-26 8,-26 11,-1 10,11 23,-5 13,-16 29,-15 31,-6 2,10 -4,18 7,15 11,-2 27,4 18,22z"/>
    <path class="fil3" d="M178 373l0 0c0,-17 4,-28 7,-34 3,-7 6,-10 6,-10l0 0c0,0 -3,3 -6,10 -3,6 -6,17 -7,34z"/>
    <path class="fil3" d="M209 373l0 0c2,-7 6,-14 12,-19l0 0c-5,5 -9,12 -12,19l0 0z"/>
    <path class="fil3" d="M149 373l0 0c-1,-2 -3,-5 -4,-7l0 0c2,2 3,4 4,7 0,0 0,0 0,0l0 0z"/>
    <path class="fil0" d="M503 373l-404 0 0 -264 404 0 0 264zm-403 -1l402 0 0 -262 -402 0 0 262z"/>
    <rect class="fil0" x="142" y="222" width="82.5376" height="0.92736"/>
    <rect class="fil0" x="142" y="228" width="82.5376" height="0.92736"/>
    <rect class="fil0" x="142" y="235" width="82.5376" height="0.92736"/>
    <rect class="fil0" x="142" y="192" width="82.5376" height="0.92736"/>
    <rect class="fil0" x="142" y="198" width="82.5376" height="0.92736"/>
    <rect class="fil0" x="142" y="205" width="82.5376" height="0.92736"/>
    <rect class="fil2" x="144" y="168" width="18.5648" height="15.084"/>
    <path class="fil0" d="M160 181l-19 0 0 -16 19 0 0 16zm-19 -1l18 0 0 -14 -18 0 0 14z"/>
    <circle class="fil2" cx="126" cy="173" r="4"/>
    <rect class="fil0" x="248" y="328" width="82.5376" height="0.92736"/>
    <rect class="fil0" x="248" y="334" width="82.5376" height="0.92736"/>
    <rect class="fil0" x="248" y="341" width="82.5376" height="0.92736"/>
    <rect class="fil0" x="248" y="298" width="82.5376" height="0.92736"/>
    <rect class="fil0" x="248" y="304" width="82.5376" height="0.92736"/>
    <rect class="fil0" x="248" y="311" width="82.5376" height="0.92736"/>
    <rect class="fil2" x="250" y="274" width="18.5648" height="15.084"/>
    <path class="fil0" d="M266 287l-19 0 0 -16 19 0 0 16zm-19 -1l18 0 0 -14 -18 0 0 14z"/>
    <circle class="fil2" cx="232" cy="279" r="4"/>
    <path class="fil4" d="M423 129l9 22 5 15 15 -21c0,0 -9,-9 -9,-20l-20 4z"/>
    <polygon class="fil4" points="396,362 392,382 404,392 409,362 "/>
    <polygon class="fil4" points="463,357 462,382 474,380 475,359 "/>
    <circle class="fil4" cx="433" cy="125" r="16"/>
    <path class="fil2" d="M469 190c0,0 5,48 1,48 -4,0 -24,-4 -28,-7 -4,-4 -17,-2 -17,-2 0,0 -10,7 -14,3 -5,-4 3,-52 3,-52l-2 -29c0,0 9,-3 13,1l1 -2 4 -4 5 5 0 1 2 7c0,0 3,-10 5,-12 0,0 1,0 1,0 2,-1 9,-7 9,-7l5 5 0 1 17 5 -5 39z"/>
    <path class="fil5" d="M415 229l-2 7c0,0 -7,1 -5,16l-6 50 -8 63 16 2 31 -93 20 89 17 0 -4 -99c0,0 3,-20 -7,-30 -9,-10 -44,-10 -52,-5z"/>
    <path class="fil5" d="M399 384c0,0 1,-6 -2,-6 -3,-1 -6,2 -7,3 -1,1 -16,21 -16,21 0,0 -12,13 5,13 17,-1 18,-9 18,-9 0,0 0,-2 3,-2 4,0 13,-4 12,-8 -1,-3 -6,-15 -6,-15 0,0 -4,10 -7,3z"/>
    <path class="fil5" d="M475 376c0,0 -6,-4 -10,-2 -3,3 -4,4 -4,4l0 0c-1,1 -1,3 -1,4 0,4 1,8 2,11 1,1 0,2 0,3 1,5 2,12 12,9 11,-3 1,-29 1,-29z"/>
    <path class="fil4" d="M470 244c0,0 -11,13 -5,17 7,4 11,-13 11,-13l-6 -4z"/>
    <path class="fil4" d="M394 116c0,0 8,-15 1,-17 -8,-2 -8,15 -8,15l7 2z"/>
    <polygon class="fil5" points="435,152 433,157 426,150 430,146 435,151 "/>
    <path class="fil5" d="M457 145l-8 9 -7 -7c0,0 1,0 1,0 2,-1 9,-7 9,-7l5 5z"/>
    <path class="fil2" d="M465 153l9 -2c0,0 10,7 13,33 4,26 -9,68 -9,68l-11 -6c0,0 6,-33 5,-38 0,-5 -5,-23 -5,-23l-2 -32z"/>
    <path class="fil5" d="M421 108l-3 -1c0,0 6,-6 14,-5l-2 -3c0,0 5,-2 11,4 2,2 6,6 8,10l3 0 -2 2 5 3 -5 -1c0,1 0,2 0,3 0,1 0,3 0,4l-1 3c0,0 -4,-9 -4,-10l0 3c0,0 -3,-2 -3,-4l-2 2 -1 -3 -9 3 1 -2 -6 0 3 -2c0,0 -6,3 -7,6 -2,2 -4,6 -4,6l-2 -2c0,0 -2,-12 6,-16z"/>
    <path class="fil2" d="M415 152l-3 -1 -18 -3 1 -32 -8 -8c0,0 -23,41 0,56 24,15 31,18 31,18l-3 -30z"/>
    <path class="fil0" d="M285 270zm-1 13l-4 -4 1 -1 3 3 6 -6 1 1 -7 7z"/>
    <path class="fil0" d="M178 164zm-1 13l-4 -4 1 -1 3 3 6 -6 1 1 -7 7z"/>
   </g>
  </g>
  <rect class="fil6" width="512" height="512"/>
 </g>
</svg>
