<?xml version="1.0" encoding="UTF-8"?>
<!DOCTYPE svg PUBLIC "-//W3C//DTD SVG 1.1//EN" "http://www.w3.org/Graphics/SVG/1.1/DTD/svg11.dtd">
<!-- Creator: CorelDRAW X7 -->
<svg xmlns="http://www.w3.org/2000/svg" xml:space="preserve" width="1080px" height="1920px" version="1.1" style="shape-rendering:geometricPrecision; text-rendering:geometricPrecision; image-rendering:optimizeQuality; fill-rule:evenodd; clip-rule:evenodd"
viewBox="0 0 1080 1920"
 xmlns:xlink="http://www.w3.org/1999/xlink">
 <defs>
  <style type="text/css">
   <![CDATA[
    .str0 {stroke:#86B5E1;stroke-width:0.45}
    .fil0 {fill:none}
    .fil13 {fill:#2F2E41}
    .fil9 {fill:#3F3D56}
    .fil3 {fill:#457ABE}
    .fil14 {fill:#575A89}
    .fil2 {fill:#6699FF}
    .fil15 {fill:#6C63FF}
    .fil1 {fill:#86B5E1}
    .fil8 {fill:#E6E6E6}
    .fil11 {fill:#FFB8B8}
    .fil10 {fill:white}
    .fil6 {fill:#333333;fill-rule:nonzero}
    .fil7 {fill:#457ABE;fill-rule:nonzero}
    .fil5 {fill:#86B5E1;fill-rule:nonzero}
    .fil12 {fill:#231F20;fill-opacity:0.200000}
    .fil4 {fill:url(#id1)}
   ]]>
  </style>
    <clipPath id="id0">
     <rect x="930" y="191" width="74.2594" height="93.8014"/>
    </clipPath>
  <linearGradient id="id1" gradientUnits="userSpaceOnUse" x1="771.046" y1="252.586" x2="1079.88" y2="252.586">
   <stop offset="0" style="stop-opacity:1; stop-color:#86B5E1"/>
   <stop offset="1" style="stop-opacity:1; stop-color:#B0CFEB"/>
  </linearGradient>
 </defs>
 <g id="Layer_x0020_1">
  <metadata id="CorelCorpID_0Corel-Layer"/>
  <rect class="fil0" transform="matrix(-2.64845E-014 1 1 2.64845E-014 2.54659E-011 -1.43245E-011)" width="1920" height="1080"/>
  <g id="_339751400">
   <path class="fil1" d="M321 263l0 -7c-2,0 -4,-1 -6,-1 -8,0 -14,4 -18,10l-1 1c-3,4 -8,6 -13,6 -5,0 -10,-2 -13,-6l-1 -2c-4,-5 -11,-9 -18,-9 -7,0 -14,4 -18,9l-2 3c-3,4 -7,6 -13,6 -5,0 -10,-2 -13,-6l-1 -2c-4,-6 -11,-9 -18,-9 0,0 0,0 0,0 -7,0 -14,3 -18,9l-1 2c-3,4 -8,7 -13,7 -6,0 -10,-3 -13,-7l-3 -4c-4,-5 -11,-9 -18,-9 -7,0 -14,4 -18,9 -3,5 -8,7 -13,7 -5,0 -10,-2 -13,-7l-2 -3c-5,-6 -11,-9 -18,-9 -7,0 -14,3 -18,9l-4 6c-3,5 -8,7 -14,7 -5,0 -10,-2 -13,-7l-2 -3 -5 3 3 4c4,6 10,9 17,9 8,0 14,-3 18,-9l5 -6c3,-5 7,-7 13,-7 5,0 10,2 13,7l2 3c4,6 11,9 18,9 7,0 14,-3 18,-9 3,-5 8,-7 13,-7 5,0 10,2 13,7l3 4c4,5 10,9 18,9 7,0 13,-4 18,-9l1 -3c3,-4 8,-6 13,-6 5,0 10,2 13,6l1 2c5,6 11,9 18,9 8,0 14,-3 18,-9l2 -2c3,-5 8,-7 13,-7 5,0 10,2 13,7l1 1c4,6 11,9 18,9 0,0 0,0 0,0 7,0 14,-3 18,-9l0 -1c3,-4 8,-7 14,-7 2,0 4,1 6,2z"/>
   <path class="fil1" d="M321 291l0 -6c-2,-1 -4,-1 -6,-1 -8,0 -14,4 -18,9l-1 1c-3,5 -8,7 -13,7 -5,0 -10,-2 -13,-7l-1 -1c-4,-6 -11,-9 -18,-9 -7,0 -14,3 -18,9l-2 2c-3,5 -7,7 -13,7 -5,0 -10,-2 -13,-7l-1 -1c-4,-6 -11,-9 -18,-9 0,0 0,0 0,0 -7,0 -14,3 -18,9l-1 2c-3,4 -8,7 -13,7 -6,0 -10,-3 -13,-7l-3 -4c-4,-6 -11,-9 -18,-9 -7,0 -14,3 -18,9 -3,4 -8,7 -13,7 -5,0 -10,-3 -13,-7l-2 -3c-5,-6 -11,-9 -18,-9 -7,0 -14,3 -18,9l-4 6c-3,4 -8,7 -14,7 -5,0 -10,-3 -13,-7l-2 -4 -5 4 3 3c4,6 10,10 17,10 8,0 14,-4 18,-10l5 -6c3,-4 7,-6 13,-6 5,0 10,2 13,6l2 4c4,5 11,9 18,9 7,0 14,-4 18,-9 3,-5 8,-7 13,-7 5,0 10,2 13,7l3 3c4,6 10,9 18,9 7,0 13,-3 18,-9l1 -2c3,-4 8,-7 13,-7 5,0 10,3 13,7l1 2c5,6 11,9 18,9 8,0 14,-3 18,-9l2 -2c3,-5 8,-7 13,-7 5,0 10,2 13,7l1 1c4,6 11,9 18,9 0,0 0,0 0,0 7,0 14,-3 18,-9l0 -1c3,-5 8,-7 14,-7 2,0 4,1 6,1z"/>
  </g>
  <g id="_339783296">
   <path class="fil2" d="M1080 155l0 140c-7,-4 -14,-6 -20,-6 -28,0 -63,56 -93,39 -31,-17 -75,8 -120,41 -46,33 -78,-12 -68,-59 10,-47 -74,-103 73,-165 89,-38 172,-16 228,10z"/>
   <circle class="fil3 str0" cx="894" cy="316" r="46"/>
   <circle class="fil3 str0" cx="780" cy="270" r="46"/>
   <circle class="fil3 str0" cx="1034" cy="168" r="46"/>
   <path class="fil4" d="M1080 162l0 134c-10,-5 -19,-9 -26,-9 -26,0 -60,54 -89,37 -29,-16 -71,8 -115,40 -43,32 -74,-11 -65,-56 10,-46 -70,-99 70,-158 89,-38 172,-14 225,12z"/>
  </g>
  <g id="Plus_x0020_Sign">
   <g>
    <polygon class="fil5" points="984,57 999,57 999,42 1010,42 1010,57 1025,57 1025,67 1010,67 1010,82 999,82 999,67 984,67 "/>
   </g>
   <g>
    <polygon class="fil6" points="922,57 936,57 936,42 947,42 947,57 962,57 962,67 947,67 947,82 936,82 936,67 922,67 "/>
   </g>
   <g>
    <polygon class="fil7" points="859,57 874,57 874,42 885,42 885,57 899,57 899,67 885,67 885,82 874,82 874,67 859,67 "/>
   </g>
  </g>
  <g id="_339773864">
   <polygon class="fil8" points="910,276 944,276 943,261 911,261 "/>
   <rect class="fil8" x="908" y="274" width="38.3144" height="3.48313"/>
   <path class="fil9" d="M862 164l131 0c2,0 3,1 3,3l0 80 -138 0 0 -80c0,-2 2,-3 4,-3l0 0z"/>
   <path class="fil8" d="M996 247l0 13c0,2 -1,4 -3,4 0,0 0,0 0,0l-131 0c0,0 0,0 0,0 -2,0 -4,-2 -4,-4l0 -13 138 0z"/>
   <rect class="fil8" x="865" y="171" width="124.232" height="69.6626"/>
   <circle class="fil9" cx="927" cy="255" r="3"/>
   <circle class="fil10" cx="985" cy="173" r="1"/>
   <circle class="fil10" cx="983" cy="173" r="1"/>
   <circle class="fil10" cx="980" cy="173" r="1"/>
   <path class="fil11" d="M854 211c0,0 -2,14 0,14 1,1 7,4 15,3 0,0 9,4 7,0 -1,-4 -7,-3 -7,-3 0,0 -10,-2 -10,-4 -1,-1 1,-7 0,-8 0,0 -5,-2 -5,-2z"/>
   <path class="fil12" d="M854 211c0,0 -1,14 1,14 1,1 6,4 15,3 0,0 8,5 7,0 -1,-4 -7,-3 -7,-3 0,0 -10,-2 -11,-3 0,-2 2,-8 1,-8 -1,-1 -6,-3 -6,-3z"/>
   <path class="fil13" d="M866 233c0,0 -1,24 -2,27 -1,2 -2,10 -2,13 0,0 0,1 0,1 0,0 -3,0 -3,-1 -1,-1 -1,-10 0,-13 0,-3 -2,-25 -2,-25l9 -2z"/>
   <path class="fil13" d="M861 273c0,0 3,0 3,1 0,1 7,2 5,4 -2,1 -8,-1 -8,-1 0,0 -4,-1 -3,-2 0,-1 1,-3 1,-3l2 1z"/>
   <path class="fil13" d="M855 273c0,0 3,1 3,2 0,1 7,2 5,3 -2,1 -8,-1 -8,-1 0,0 -4,0 -3,-1 0,-1 1,-3 1,-3l2 0z"/>
   <path class="fil13" d="M864 235l-3 5 -5 17c0,0 1,17 0,17 0,0 -4,1 -4,0 0,-1 -3,-10 -1,-16 0,-3 1,-7 1,-11l1 -9c0,0 -2,-4 0,-5 2,-1 11,2 11,2z"/>
   <circle class="fil11" cx="862" cy="197" r="5"/>
   <path class="fil11" d="M862 200c0,0 -1,7 0,7 0,1 -6,-4 -6,-4 0,0 2,-3 2,-5l4 2z"/>
   <path class="fil14" d="M850 207c0,0 6,-4 6,-5l5 4 1 -1c0,0 3,3 3,5 0,1 0,6 0,7 -1,1 2,17 2,17 0,0 -2,2 -3,2 0,1 -8,-1 -8,-1 0,0 -5,0 -5,-1 0,-1 2,-10 1,-13 0,-2 -2,-14 -2,-14z"/>
   <path class="fil13" d="M864 194c-1,0 -2,0 -2,0 -1,0 -2,1 -3,2 -1,1 -2,1 -3,1 0,0 0,0 0,-1 0,0 0,0 0,0 0,-1 0,-1 1,-2 0,0 0,0 0,0 0,0 0,-1 0,-1 0,0 0,-1 0,-1 2,-1 5,-1 7,-1 0,0 1,0 1,1 0,-1 1,0 1,0l1 1c0,0 0,1 1,1 0,1 0,1 0,2 0,-1 0,1 -1,1 -1,-1 -2,-3 -3,-3z"/>
   <rect class="fil10" x="869" y="176" width="117.439" height="58.5052"/>
   <rect class="fil8" x="953" y="184" width="25.6678" height="22.4183"/>
   <rect class="fil8" x="914" y="184" width="25.5906" height="22.3508"/>
   <rect class="fil8" x="876" y="184" width="25.8416" height="22.5701"/>
   <rect class="fil8" x="954" y="216" width="25.1047" height="2.31909"/>
   <rect class="fil15" x="966" y="220" width="12.5781" height="2.31909"/>
   <rect class="fil8" x="914" y="216" width="25.1047" height="2.31909"/>
   <rect class="fil15" x="927" y="220" width="12.5781" height="2.31909"/>
   <rect class="fil8" x="876" y="216" width="25.1047" height="2.31909"/>
   <rect class="fil15" x="889" y="220" width="12.5781" height="2.31909"/>
   <circle class="fil15" cx="932" cy="211" r="1"/>
   <circle class="fil8" cx="927" cy="211" r="1"/>
   <circle class="fil8" cx="923" cy="211" r="1"/>
   <circle class="fil15" cx="971" cy="211" r="1"/>
   <circle class="fil15" cx="966" cy="211" r="1"/>
   <circle class="fil8" cx="962" cy="211" r="1"/>
   <circle class="fil15" cx="892" cy="211" r="1"/>
   <circle class="fil15" cx="887" cy="211" r="1"/>
   <circle class="fil15" cx="883" cy="211" r="1"/>
   <path class="fil15" d="M889 189c3,0 6,3 6,6 0,4 -3,7 -6,7 -4,0 -7,-3 -7,-7 0,0 0,0 0,0 0,-3 3,-6 7,-6l0 0zm-7 8c0,-1 -1,-2 -2,-2l2 2zm0 10c2,0 3,-1 4,-2 0,-2 -3,-2 -4,-2 -1,0 -4,0 -4,2 1,1 2,2 4,2l0 0z"/>
   <path class="fil15" d="M927 189zm0 2c0,-1 -1,-2 -2,-2l2 2zm0 9c2,0 3,0 4,-2 0,-1 -3,-2 -4,-2 -1,0 -4,1 -4,2 1,2 3,2 4,2l0 0z"/>
   <path class="fil15" d="M966 189c0,0 0,0 0,0 4,0 7,3 7,6 0,4 -3,7 -7,7 -4,0 -7,-3 -7,-7 0,-3 3,-6 7,-6l0 0zm-7 8c0,0 0,0 0,0 -1,0 -2,1 -2,2 0,1 1,2 2,2 2,0 2,-1 2,-2 1,1 2,1 3,1 2,0 5,-2 5,-5 0,-2 -1,-3 -3,-4l-7 6zm2 12c2,0 3,-1 4,-2 0,-2 -2,-2 -4,-2 -1,0 -3,0 -4,2 1,1 3,2 4,2l0 0z"/>
   <path class="fil11" d="M849 213c0,0 -1,14 0,14 2,1 7,4 16,3 0,0 8,4 7,0 -1,-4 -7,-3 -7,-3 0,0 -10,-2 -11,-4 0,-1 1,-7 1,-8 -1,0 -6,-2 -6,-2z"/>
   <path class="fil14" d="M854 207l-4 0c0,0 -3,6 -1,8 2,1 7,1 7,1 0,0 -2,-9 -2,-9z"/>
   <g style="clip-path:url(#id0)">
    <image x="930" y="191" width="74.2589" height="93.8008" xlink:href="Header_Mobile_Images\Header_Mobile_ImgID1.png"/>
   </g>
  </g>
 </g>
</svg>
