<?xml version="1.0" encoding="UTF-8"?>
<!DOCTYPE svg PUBLIC "-//W3C//DTD SVG 1.1//EN" "http://www.w3.org/Graphics/SVG/1.1/DTD/svg11.dtd">
<!-- Creator: CorelDRAW X7 -->
<svg xmlns="http://www.w3.org/2000/svg" xml:space="preserve" width="1920px" height="1080px" version="1.1" style="shape-rendering:geometricPrecision; text-rendering:geometricPrecision; image-rendering:optimizeQuality; fill-rule:evenodd; clip-rule:evenodd"
viewBox="0 0 1920 1080"
 xmlns:xlink="http://www.w3.org/1999/xlink">
 <defs>
  <style type="text/css">
   <![CDATA[
    .str0 {stroke:#86B5E1;stroke-width:0.45}
    .fil0 {fill:none}
    .fil13 {fill:#2F2E41}
    .fil9 {fill:#3F3D56}
    .fil4 {fill:#457ABE}
    .fil14 {fill:#575A89}
    .fil3 {fill:#6699FF}
    .fil15 {fill:#6C63FF}
    .fil1 {fill:#86B5E1}
    .fil8 {fill:#E6E6E6}
    .fil11 {fill:#FFB8B8}
    .fil10 {fill:white}
    .fil6 {fill:#333333;fill-rule:nonzero}
    .fil7 {fill:#457ABE;fill-rule:nonzero}
    .fil2 {fill:#86B5E1;fill-rule:nonzero}
    .fil12 {fill:#231F20;fill-opacity:0.200000}
    .fil5 {fill:url(#id1)}
   ]]>
  </style>
    <clipPath id="id0">
     <rect x="1342" y="434" width="210" height="265"/>
    </clipPath>
  <linearGradient id="id1" gradientUnits="userSpaceOnUse" x1="1187.99" y1="567.572" x2="1919.8" y2="567.572">
   <stop offset="0" style="stop-opacity:1; stop-color:#86B5E1"/>
   <stop offset="1" style="stop-opacity:1; stop-color:#B0CFEB"/>
  </linearGradient>
 </defs>
 <g id="Layer_x0020_1">
  <metadata id="CorelCorpID_0Corel-Layer"/>
  <rect class="fil0" width="1920" height="1080"/>
  <g id="_329933976">
   <path class="fil1" d="M0 186l0 -8c3,-1 6,-2 9,-2 9,0 17,5 22,12l1 1c4,5 10,9 16,9 7,0 13,-4 17,-9l1 -1c5,-8 13,-12 22,-12 10,0 18,4 23,12l2 2c4,6 10,9 16,9 7,0 13,-3 17,-9l1 -2c6,-7 14,-11 23,-11 0,0 0,0 0,0 9,0 17,4 22,11l2 3c4,5 10,9 17,9 6,0 12,-4 16,-9l3 -5c6,-7 14,-11 23,-11 9,0 17,4 22,11 4,6 10,9 17,9 7,0 13,-3 16,-9l3 -4c5,-7 14,-11 23,-11 9,0 17,4 22,11l5 8c4,5 10,8 17,8 7,0 13,-3 16,-8l4 -5 6 5 -4 4c-5,8 -13,12 -22,12 -9,0 -17,-4 -23,-12l-5 -7c-4,-6 -10,-9 -16,-9 -7,0 -13,3 -17,9l-3 4c-5,7 -13,11 -22,11 -9,0 -17,-4 -23,-11 -3,-6 -9,-9 -16,-9 -7,0 -13,3 -16,9l-4 4c-5,8 -13,12 -22,12 -9,0 -18,-4 -23,-12l-2 -2c-3,-6 -9,-9 -16,-9 -7,0 -13,3 -17,9l-1 2c-5,7 -13,11 -23,11 -9,0 -17,-4 -22,-11l-2 -3c-4,-6 -10,-9 -17,-9 -6,0 -12,3 -16,9l-1 1c-5,8 -14,12 -23,12 0,0 0,0 0,0 -9,0 -17,-4 -22,-12l-1 -1c-4,-5 -10,-8 -16,-8 -3,0 -6,0 -9,2z"/>
   <path class="fil1" d="M0 222l0 -8c3,-1 6,-2 9,-2 9,0 17,5 22,12l1 1c4,6 10,9 16,9 7,0 13,-3 17,-9l1 -1c5,-8 13,-12 22,-12 10,0 18,4 23,12l2 3c4,5 10,8 16,8 7,0 13,-3 17,-8l1 -2c6,-8 14,-12 23,-12 0,0 0,0 0,0 9,0 17,4 22,11l2 3c4,5 10,9 17,9 6,0 12,-4 16,-9l3 -5c6,-7 14,-11 23,-11 9,0 17,4 22,11 4,6 10,9 17,9 7,0 13,-3 16,-9l3 -3c5,-8 14,-12 23,-12 9,0 17,4 22,12l5 7c4,5 10,9 17,9 7,0 13,-4 16,-9l4 -5 6 5 -4 4c-5,8 -13,12 -22,12 -9,0 -17,-4 -23,-12l-5 -7c-4,-6 -10,-9 -16,-9 -7,0 -13,3 -17,9l-3 4c-5,7 -13,11 -22,11 -9,0 -17,-4 -23,-11 -3,-6 -9,-9 -16,-9 -7,0 -13,3 -16,9l-4 4c-5,8 -13,12 -22,12 -9,0 -18,-4 -23,-12l-2 -2c-3,-6 -9,-9 -16,-9 -7,0 -13,3 -17,9l-1 2c-5,7 -13,11 -23,11 -9,0 -17,-4 -22,-11l-2 -3c-4,-6 -10,-9 -17,-9 -6,0 -12,3 -16,9l-1 1c-5,8 -14,12 -23,12 0,0 0,0 0,0 -9,0 -17,-4 -22,-12l-1 -1c-4,-5 -10,-8 -16,-8 -3,0 -6,0 -9,2z"/>
  </g>
  <g id="Arrow_x0020_Geometrical">
   <g>
    <path class="fil2" d="M1494 591l6 6 -2 102 -1 -2 0 -6 -1 -5 -1 -6 -1 -8 0 -2 -2 -13 2 -66zm73 73l0 0 -4 160 6 1 4 -155 -6 -6zm39 166l0 0 4 -124 -7 -6 -3 129 0 0 6 1zm-81 -11l0 0 7 1 5 -187 -7 -6 -5 192zm188 -10l0 0 -1 34 6 1 1 -28 -6 -7zm-73 -73l0 0 -3 98 7 1 2 -92 -6 -7zm36 37l0 0 -1 66 6 0 2 -60 -7 -6z"/>
    <path class="fil2" d="M1713 809l34 0 1 6 -29 1 -6 -7zm-219 -218l0 0 6 6 103 -3 -9 -1 -6 -1 -12 -1 -7 -1 -9 -1 -66 2zm152 152l0 0 92 -3 -1 -6 -97 2 6 7zm37 36l0 0 60 -1 -1 -7 -66 2 7 6zm-146 -146l0 0 186 -4 0 -7 -193 5 7 6zm73 73l0 0 123 -3 -1 -5 0 -1 -129 3 7 6zm-37 -36l0 0 155 -4 -1 -7 -160 5 6 6z"/>
    <path class="fil2" d="M1688 605l0 -28 -6 -7 -1 34 7 1zm-150 -19l0 0 2 -65 -7 6 -1 58 6 1zm38 5l0 0 0 0 2 -109 -6 7 -3 101 7 1zm-79 -10l0 0 4 0 1 -22 -7 7 -1 14 3 1zm109 14l0 0 7 1 0 0 2 -92 -6 -7 -3 98zm44 5l0 0 2 -60 -7 -6 -1 66 6 0z"/>
    <path class="fil2" d="M1737 730l2 -102 -6 -7 -2 67 6 42zm-6 -46l0 0 1 12 0 1 0 1 1 5 1 5 1 7 1 7 1 12 1 6 -7 -56zm-4 -25l0 0 1 7 -1 -7zm83 132l0 0 2 -90 -6 -7 -3 103 7 -6zm38 -39l0 0 1 -15 -7 -6 0 28 6 -7zm-77 77l0 0 5 -165 -7 -6 -4 178 6 -7z"/>
    <path class="fil2" d="M1489 635l-1 -7 1 7zm20 149l0 0 -1 -6 -34 1 6 6 29 -1zm-108 -78l0 0 6 6 92 -2 -1 -7 -97 3zm103 41l0 0 0 -1 -1 -6 0 0 -66 2 7 7 60 -2zm-20 -149l0 0 0 -7 -15 1 -6 6 21 0zm10 72l0 0 -1 -4 -101 2 -6 7 108 -3 0 -2zm-6 -42l0 0 -57 2 -7 7 65 -2 -1 -7z"/>
    <path class="fil2" d="M1600 829l0 0 -5 -1 -4 0 -66 2 6 6 102 -3 -24 -3 -3 0 -6 -1zm-32 43l0 0 164 -4 7 -7 -178 5 7 6zm73 73l0 0 14 0 7 -7 -28 1 7 6zm-37 -36l0 0 90 -2 7 -7 -103 3 6 6z"/>
   </g>
   <g>
    <path class="fil2" d="M1702 382l6 7 -2 102 -1 -2 0 -6 -1 -5 -1 -6 -1 -8 0 -2 -2 -13 2 -67zm218 253l0 0 0 0 0 0zm-145 -180l0 0 -4 161 6 1 4 -155 -6 -7zm40 167l0 0 3 -124 -7 -6 -3 129 0 0 7 1zm-82 -11l0 0 7 1 5 -187 -6 -6 -6 192zm115 -83l0 0 -3 98 7 0 2 -91 -6 -7zm36 37l0 0 -1 65 6 1 2 -60 -7 -6z"/>
    <path class="fil2" d="M1920 414l0 7 -175 4 0 0 -6 -6 181 -5zm0 38l0 6 -139 4 0 0 -6 -7 145 -3zm0 37l0 7 -102 2 0 0 -7 -6 109 -3zm0 37l0 7 -66 2 0 0 -6 -7 72 -2zm0 38l0 6 -29 1 0 0 -7 -6 36 -1zm-218 -182l0 0 6 7 103 -3 -9 -1 -6 -1 -12 -1 -7 -1 -8 -1 -67 1z"/>
    <path class="fil2" d="M1896 397l0 -28 -6 -7 -1 34 7 1zm-150 -19l0 0 2 -65 -7 6 -1 58 6 1zm38 5l0 0 0 0 3 -109 -7 7 -3 101 7 1zm-79 -11l0 0 4 1 1 -22 -7 7 0 14 2 0zm110 15l0 0 6 0 0 0 3 -91 -7 -7 -2 98zm43 5l0 0 2 -60 -6 -6 -2 65 6 1z"/>
    <path class="fil2" d="M1697 427l0 -7 0 7zm20 149l0 0 -1 -6 0 0 -34 0 6 7 29 -1zm-108 -79l0 0 6 7 92 -3 -1 -6 -97 2zm103 42l0 0 0 -1 -1 -6 -66 2 7 6 60 -1zm-19 -149l0 0 -1 -7 -15 0 -6 7 22 0zm9 72l0 0 -1 -4 -101 2 -6 7 108 -3 0 -2zm-5 -42l0 0 -58 2 -7 7 65 -2 0 -7z"/>
    <path class="fil2" d="M1808 621l0 0 -4 -1 -5 0 -66 1 6 7 103 -3 -24 -3 -3 0 -7 -1zm112 33l0 6 -144 4 0 0 -7 -6 151 -4zm-71 83l0 0 15 0 6 -7 -28 1 7 6zm-37 -36l0 0 90 -3 7 -6 -103 2 6 7z"/>
   </g>
   <g>
    <path class="fil2" d="M1764 860l6 7 -3 102 0 -2 -1 -6 0 -5 -1 -6 -1 -8 0 -2 -2 -13 2 -67zm150 220l-6 0 2 -74 0 0 6 7 -2 67zm-37 0l-7 0 3 -110 7 6 -3 104zm-38 0l-6 0 4 -147 0 0 6 7 -4 140zm-37 0l-7 0 5 -183 7 6 -5 177z"/>
    <path class="fil2" d="M1920 894l0 6 -113 3 0 0 -7 -6 120 -3zm0 37l0 7 -77 2 0 0 -6 -7 83 -2zm0 38l0 6 -40 1 0 0 -7 -6 47 -1zm0 37l0 7 -4 0 0 0 -6 -7 10 0zm-156 -146l0 0 6 7 102 -3 -8 -1 -6 -1 -13 -1 -6 -1 -9 -1 -66 1z"/>
    <path class="fil2" d="M1920 809l0 61 -6 -1 1 -65 5 5zm-112 47l0 0 2 -65 -7 6 -1 58 6 1zm37 5l0 0 0 0 3 -109 -6 7 -3 101 6 1zm-78 -11l0 0 4 1 0 -22 -6 7 -1 14 3 0zm109 15l0 0 7 0 0 0 2 -91 -6 -7 -3 98 0 0z"/>
    <path class="fil2" d="M1759 905l-1 -7 1 7zm19 149l0 0 0 -6 0 0 -34 0 6 7 28 -1zm-107 -79l0 0 6 7 92 -3 -1 -6 -97 2zm103 42l0 0 -1 -1 0 -6 0 0 -66 2 6 6 61 -1zm-20 -149l0 0 -1 -7 -14 0 -7 7 22 0 0 0zm10 72l0 0 -1 -4 -101 2 -7 7 109 -3 0 -2zm-6 -42l0 0 -57 2 -7 7 65 -2 -1 -7z"/>
   </g>
   <path class="fil2" d="M1920 691l0 7 -18 0 7 -6 11 -1zm0 38l0 6 -56 2 6 -7 50 -1zm0 37l0 7 -35 1 -6 -7 0 0 41 -1zm0 38l0 5 -5 -5 5 0z"/>
   <g>
    <path class="fil2" d="M1286 799l6 6 -3 102 0 -2 -1 -6 0 -5 -1 -6 -1 -8 0 -2 -2 -13 2 -66zm73 73l0 0 -5 160 7 1 4 -155 -6 -6zm39 166l0 0 4 -123 -7 -7 -3 129 0 0 6 1zm-81 -10l0 0 7 0 5 -186 -7 -7 -5 193zm188 -10l0 0 -1 34 6 0 1 -28 -6 -6zm-73 -73l0 0 -3 97 7 1 2 -92 -6 -6zm36 36l0 0 -2 66 7 1 1 -60 -6 -7z"/>
    <path class="fil2" d="M1505 1018l34 -1 0 6 -28 1 -6 -6zm-219 -219l0 0 6 6 102 -3 -8 -1 -6 0 -13 -2 -6 -1 -9 -1 -66 2zm152 152l0 0 92 -2 -1 -7 -97 3 6 6zm36 37l0 0 61 -2 -1 -7 -66 2 6 7zm-145 -146l0 0 186 -5 -1 -7 -192 5 7 7zm73 73l0 0 123 -4 -1 -5 0 -1 -129 3 7 7zm-37 -37l0 0 155 -4 -1 -7 -160 5 6 6z"/>
    <path class="fil2" d="M1479 813l1 -28 -6 -6 -1 34 6 0zm-149 -19l0 0 2 -65 -7 7 -1 57 6 1zm37 5l0 0 0 0 3 -109 -6 7 -3 101 6 1zm-78 -10l0 0 4 0 0 -22 -6 7 -1 15 3 0zm109 14l0 0 7 1 0 0 2 -92 -6 -6 -3 97zm44 6l0 0 2 -60 -7 -7 -1 66 6 1z"/>
    <path class="fil2" d="M1528 938l3 -102 -6 -6 -2 66 5 42zm-5 -45l0 0 1 11 0 1 0 1 1 5 1 5 0 7 1 7 2 12 1 7 -7 -56zm-4 -26l0 0 1 7 -1 -7zm83 132l0 0 2 -90 -6 -6 -3 102 7 -6zm38 -39l0 0 1 -15 -7 -6 -1 28 7 -7zm-77 77l0 0 5 -165 -7 -6 -5 178 7 -7z"/>
    <path class="fil2" d="M1281 843l-1 -6 1 6zm19 149l0 0 0 -6 0 0 -34 1 6 6 28 -1zm-107 -78l0 0 6 6 92 -2 -1 -7 -97 3zm103 41l0 0 -1 -1 0 -5 -66 1 6 7 61 -2zm-20 -149l0 0 -1 -7 -14 1 -7 6 22 0zm10 72l0 0 -1 -4 -101 3 -7 6 109 -3 0 -2zm-6 -41l0 0 -57 1 -7 7 65 -2 -1 -6z"/>
    <path class="fil2" d="M1392 1037l0 0 -5 0 -4 -1 -66 2 6 6 102 -3 -24 -3 -3 0 -6 -1zm-8 43l-25 0 -6 -6 178 -4 -7 6 -140 4z"/>
   </g>
   <g>
    <polygon class="fil2" points="1556,1069 1562,1075 1562,1080 1555,1080 "/>
    <polygon class="fil2" points="1556,1069 1556,1069 1562,1075 1664,1072 1656,1071 1649,1070 1637,1069 1631,1068 1622,1067 "/>
    <path class="fil2" d="M1749 1080l1 -25 -6 -7 -1 32 6 0zm-149 -16l0 0 2 -65 -7 6 -2 58 7 1zm37 5l0 0 0 0 3 -109 -7 7 -2 101 6 1zm-78 -10l0 0 4 0 0 -22 -7 7 0 14 3 1zm109 14l0 0 7 1 0 0 2 -92 -6 -7 -3 98 0 0zm44 5l0 0 0 0 1 -60 -6 -6 -2 66 7 0z"/>
    <polygon class="fil2" points="1546,1076 1546,1076 1545,1069 1531,1070 1524,1076 1546,1076 "/>
   </g>
   <g>
    <path class="fil2" d="M1080 1009l6 7 -1 64 -6 0 -1 -4 2 -67zm42 71l-7 0 1 -34 7 6 -1 28z"/>
    <path class="fil2" d="M1314 1080l-80 0 79 -2 1 2zm-234 -71l0 0 6 7 103 -3 -9 -1 -6 -1 -12 -2 -7 0 -9 -2 -66 2zm43 43l0 0 186 -5 0 -6 -193 5 7 6z"/>
    <path class="fil2" d="M1274 1024l0 -29 -6 -6 -1 34 7 1zm-150 -19l0 0 2 -66 -7 7 -1 58 6 1zm38 4l0 0 0 0 2 -108 -6 7 -3 101 7 0zm-79 -10l0 0 4 1 1 -22 -7 7 -1 14 3 0zm109 14l0 0 7 1 0 0 2 -92 -6 -6 -3 97zm44 6l0 0 2 -60 -7 -6 -1 65 6 1z"/>
    <path class="fil2" d="M1324 1080l1 -34 -6 -6 -1 40 6 0zm35 0l-4 0 0 -4 4 4zm-46 -2l0 0 1 2 -1 -2z"/>
    <path class="fil2" d="M1075 1054l-1 -7 1 7zm-5 -38l0 0 0 -6 -15 0 -6 7 21 -1zm4 31l0 0 -57 2 -7 6 65 -1 -1 -7z"/>
   </g>
   <g>
    <polygon class="fil2" points="1911,177 1917,183 1915,285 1914,283 1914,277 1913,272 1912,266 1911,258 1911,256 1909,243 "/>
    <polygon class="fil2" points="1920,176 1920,183 1917,183 1911,177 1911,177 "/>
    <polygon class="fil2" points="1914,167 1914,167 1918,167 1919,145 1912,152 1912,166 "/>
    <path class="fil2" d="M1906 221l0 -7 0 7zm14 106l0 6 -59 1 -7 -6 66 -2 0 1zm0 37l0 6 -23 1 -6 -6 29 -1zm-102 -72l0 0 6 6 92 -2 -1 -7 -97 3zm84 -108l0 0 -1 -7 -15 1 -6 6 22 0zm9 72l0 0 -1 -4 -101 2 -6 7 108 -3 0 -2zm-5 -42l0 0 -58 2 -7 7 65 -2 0 -7z"/>
   </g>
  </g>
  <path class="fil3" d="M1920 336l0 331c-18,-8 -34,-13 -48,-13 -65,0 -149,131 -221,91 -72,-40 -176,19 -283,98 -108,79 -184,-27 -161,-139 23,-112 -175,-245 173,-391 212,-90 408,-38 540,23z"/>
  <circle class="fil4 str0" cx="1480" cy="718" r="109"/>
  <circle class="fil4 str0" cx="1209" cy="609" r="109"/>
  <circle class="fil4 str0" cx="1811" cy="368" r="109"/>
  <path class="fil5" d="M1920 354l0 317c-23,-12 -45,-21 -62,-21 -62,0 -142,126 -211,87 -69,-38 -168,19 -271,94 -103,76 -176,-26 -154,-133 22,-108 -168,-234 165,-374 212,-90 407,-32 533,30z"/>
  <g id="Plus_x0020_Sign">
   <g>
    <polygon class="fil2" points="1724,88 1709,88 1709,72 1697,72 1697,88 1681,88 1681,100 1697,100 1697,115 1709,115 1709,100 1724,100 "/>
   </g>
   <g>
    <polygon class="fil6" points="1792,88 1776,88 1776,72 1764,72 1764,88 1749,88 1749,100 1764,100 1764,115 1776,115 1776,100 1792,100 "/>
   </g>
   <g>
    <polygon class="fil7" points="1859,88 1843,88 1843,72 1832,72 1832,88 1816,88 1816,100 1832,100 1832,115 1843,115 1843,100 1859,100 "/>
   </g>
  </g>
  <g id="_334883192">
   <polygon class="fil8" points="1609,674 1512,674 1515,632 1605,632 "/>
   <rect class="fil8" x="1507" y="669" width="108.152" height="9.83199"/>
   <path class="fil9" d="M1745 357l-369 0c-5,0 -10,5 -10,10l0 225 389 0 0 -225c0,-5 -4,-10 -10,-10l0 0z"/>
   <path class="fil8" d="M1366 592l0 37c0,6 5,10 10,10 0,0 0,0 0,0l369 0c0,0 0,0 0,0 6,0 10,-4 10,-10l0 -37 -389 0z"/>
   <rect class="fil8" x="1386" y="378" width="351" height="197"/>
   <circle class="fil9" cx="1561" cy="615" r="10"/>
   <circle class="fil10" cx="1397" cy="384" r="2"/>
   <circle class="fil10" cx="1404" cy="384" r="2"/>
   <circle class="fil10" cx="1411" cy="384" r="2"/>
   <path class="fil11" d="M1769 490c0,0 3,39 -2,41 -4,1 -19,10 -43,7 0,0 -23,13 -20,1 4,-12 20,-9 20,-9 0,0 29,-6 30,-10 1,-5 -3,-22 -2,-23 2,0 17,-7 17,-7z"/>
   <path class="fil12" d="M1767 491c0,0 3,39 -2,40 -4,1 -19,10 -43,8 0,0 -23,12 -20,0 4,-12 20,-9 20,-9 0,0 29,-6 30,-10 1,-4 -3,-21 -2,-22 2,-1 17,-7 17,-7z"/>
   <path class="fil13" d="M1733 554c0,0 2,65 6,74 3,7 4,30 5,37 0,2 0,2 0,2 0,0 10,0 10,-2 1,-2 3,-29 0,-37 -2,-9 4,-71 4,-71l-25 -3z"/>
   <path class="fil13" d="M1746 664c0,0 -6,2 -7,5 -1,2 -21,6 -15,9 6,3 24,-2 24,-2 0,0 10,-1 9,-4 0,-4 -3,-8 -3,-8l-8 0z"/>
   <path class="fil13" d="M1763 666c0,0 -6,2 -7,5 -1,2 -21,6 -15,9 6,3 24,-2 24,-2 0,0 10,-1 9,-4 -1,-4 -3,-8 -3,-8l-8 0z"/>
   <path class="fil13" d="M1738 557l8 14 14 51c0,0 -1,46 1,46 2,0 11,3 12,0 0,-3 7,-27 4,-43 -2,-11 -4,-21 -4,-32l-2 -28c0,0 6,-10 -1,-12 -6,-2 -32,4 -32,4z"/>
   <circle class="fil11" cx="1746" cy="450" r="14"/>
   <path class="fil11" d="M1744 460c0,0 2,19 2,20 -1,1 14,-13 14,-13 0,0 -5,-9 -4,-13l-12 6z"/>
   <path class="fil14" d="M1778 479c0,0 -17,-12 -18,-15l-12 11 -3 -2c0,0 -9,9 -9,14 0,4 -1,16 1,20 2,4 -6,49 -6,49 0,0 6,6 7,6 1,1 25,-3 25,-3 0,0 12,-1 12,-3 0,-2 -4,-29 -3,-36 1,-8 6,-41 6,-41z"/>
   <path class="fil13" d="M1740 443c2,-1 4,-1 6,-1 3,1 5,4 7,6 2,2 5,4 8,3 0,-1 0,-1 0,-2 1,0 0,-1 0,-2 -1,-1 0,-3 -1,-4 0,0 0,0 -1,0 -1,-1 0,-3 0,-4 -1,-1 -1,-1 -1,-1 -6,-3 -13,-3 -19,-3 -1,0 -2,0 -2,1 -1,-1 -3,0 -4,2l-2 2c-1,1 -2,2 -2,3 -1,1 -1,3 0,4 -1,-1 -2,5 2,4 4,-4 6,-7 9,-8z"/>
   <rect class="fil10" x="1395" y="391" width="331" height="165"/>
   <rect class="fil8" x="1415" y="415" width="72.4537" height="63.281"/>
   <rect class="fil8" x="1525" y="415" width="72.2356" height="63.0907"/>
   <rect class="fil8" x="1633" y="414" width="72.9443" height="63.7096"/>
   <rect class="fil8" x="1415" y="506" width="70.8642" height="6.54619"/>
   <rect class="fil15" x="1415" y="517" width="35.5049" height="6.54619"/>
   <rect class="fil8" x="1526" y="506" width="70.8642" height="6.54619"/>
   <rect class="fil15" x="1526" y="517" width="35.5049" height="6.54619"/>
   <rect class="fil8" x="1634" y="506" width="70.8642" height="6.54619"/>
   <rect class="fil15" x="1634" y="517" width="35.5049" height="6.54619"/>
   <circle class="fil15" cx="1548" cy="492" r="3"/>
   <circle class="fil8" cx="1561" cy="492" r="3"/>
   <circle class="fil8" cx="1573" cy="492" r="3"/>
   <circle class="fil15" cx="1438" cy="492" r="3"/>
   <circle class="fil15" cx="1451" cy="492" r="3"/>
   <circle class="fil8" cx="1464" cy="492" r="3"/>
   <circle class="fil15" cx="1660" cy="492" r="3"/>
   <circle class="fil15" cx="1673" cy="492" r="3"/>
   <circle class="fil15" cx="1685" cy="492" r="3"/>
   <path class="fil15" d="M1670 428c-10,0 -19,8 -19,18 0,10 9,19 19,19 10,0 18,-9 18,-19 0,0 0,0 0,0 0,-10 -8,-18 -18,-18l0 0zm18 24c0,-3 3,-6 6,-6l-6 6zm0 27c-4,0 -8,-3 -11,-6 0,-4 8,-6 11,-6 4,0 11,2 12,6 -3,3 -7,6 -12,6l0 0z"/>
   <path class="fil15" d="M1561 428zm0 6c0,-4 2,-6 5,-6l-5 6zm0 26c-5,0 -9,-2 -11,-6 0,-3 7,-5 11,-5 4,0 11,2 11,5 -3,4 -7,6 -11,6l0 0z"/>
   <path class="fil15" d="M1451 428c0,0 0,0 0,0 -10,0 -18,8 -18,18 0,11 8,19 18,19 10,0 19,-8 19,-19 0,-10 -9,-18 -19,-18l0 0zm19 24c0,0 0,0 0,0 3,0 5,2 5,6 0,3 -2,5 -5,5 -3,0 -6,-2 -6,-5 -2,1 -4,1 -6,1 -8,0 -14,-6 -14,-13 0,-6 3,-10 7,-13l19 19zm-6 32c-4,0 -9,-2 -11,-6 0,-3 7,-5 11,-5 4,0 11,2 11,5 -2,4 -6,6 -11,6l0 0z"/>
   <path class="fil11" d="M1781 496c0,0 3,39 -1,40 -4,1 -19,10 -43,8 0,0 -24,12 -20,0 4,-12 20,-9 20,-9 0,0 29,-6 30,-10 1,-4 -4,-22 -2,-22 2,-1 16,-7 16,-7z"/>
   <path class="fil14" d="M1768 480l10 -1c0,0 9,18 4,21 -6,3 -19,6 -19,5 0,-2 5,-25 5,-25z"/>
   <g style="clip-path:url(#id0)">
    <image x="1342" y="434" width="210" height="265" xlink:href="Header_Rev1_Images\Header_Rev1_ImgID1.png"/>
   </g>
  </g>
  <g id="_334882232">
   <polygon class="fil2" points="105,687 110,687 110,662 105,662 "/>
   <polygon class="fil2" points="105,654 110,654 110,629 105,629 "/>
   <polygon class="fil2" points="105,621 110,621 110,596 105,596 "/>
   <polygon class="fil2" points="105,588 110,588 110,563 105,563 "/>
   <polygon class="fil2" points="105,555 110,555 110,530 105,530 "/>
   <polygon class="fil2" points="105,522 110,522 110,497 105,497 "/>
   <polygon class="fil2" points="105,489 110,489 110,464 105,464 "/>
   <polygon class="fil2" points="105,456 110,456 110,431 105,431 "/>
  </g>
  <polygon class="fil6" points="131,687 136,687 136,662 131,662 "/>
  <polygon class="fil6" points="131,654 136,654 136,629 131,629 "/>
  <polygon class="fil6" points="131,621 136,621 136,596 131,596 "/>
  <polygon class="fil6" points="131,588 136,588 136,563 131,563 "/>
  <polygon class="fil6" points="131,555 136,555 136,530 131,530 "/>
  <polygon class="fil6" points="131,522 136,522 136,497 131,497 "/>
  <polygon class="fil6" points="131,489 136,489 136,464 131,464 "/>
  <polygon class="fil6" points="131,456 136,456 136,431 131,431 "/>
  <polygon class="fil7" points="155,687 159,687 159,662 155,662 "/>
  <polygon class="fil7" points="155,654 159,654 159,629 155,629 "/>
  <polygon class="fil7" points="155,621 159,621 159,596 155,596 "/>
  <polygon class="fil7" points="155,588 159,588 159,563 155,563 "/>
  <polygon class="fil7" points="155,555 159,555 159,530 155,530 "/>
  <polygon class="fil7" points="155,522 159,522 159,497 155,497 "/>
  <polygon class="fil7" points="155,489 159,489 159,464 155,464 "/>
  <polygon class="fil7" points="155,456 159,456 159,431 155,431 "/>
 </g>
</svg>
