<?xml version="1.0" encoding="UTF-8"?>
<!DOCTYPE svg PUBLIC "-//W3C//DTD SVG 1.1//EN" "http://www.w3.org/Graphics/SVG/1.1/DTD/svg11.dtd">
<!-- Creator: CorelDRAW X7 -->
<svg xmlns="http://www.w3.org/2000/svg" xml:space="preserve" width="1920px" height="1080px" version="1.1" style="shape-rendering:geometricPrecision; text-rendering:geometricPrecision; image-rendering:optimizeQuality; fill-rule:evenodd; clip-rule:evenodd"
viewBox="0 0 1920 1080"
 xmlns:xlink="http://www.w3.org/1999/xlink">
 <defs>
  <style type="text/css">
   <![CDATA[
    .fil2 {fill:none}
    .fil0 {fill:black;fill-rule:nonzero}
    .fil1 {fill:#666666;fill-rule:nonzero}
   ]]>
  </style>
 </defs>
 <g id="Layer_x0020_1">
  <metadata id="CorelCorpID_0Corel-Layer"/>
  <path class="fil0" d="M133 120c1,0 1,0 2,0 0,0 0,0 0,0 0,0 0,0 0,0 0,0 -1,1 -2,1 0,-1 0,-1 0,-1zm-2 -15c-1,0 -1,0 -1,0 0,1 0,1 0,1 0,0 0,0 0,0 -3,0 -7,2 -10,3 -4,2 -8,5 -11,7 -4,3 -7,6 -9,10 -1,1 -2,3 -3,5 0,1 -1,2 -1,3 0,0 -1,0 -1,0 -1,0 -1,0 -1,0 2,2 4,3 5,4 0,0 1,0 1,0 0,1 0,1 0,2 0,0 0,1 1,1 0,0 0,0 0,1 0,-1 0,0 0,0 0,0 0,0 0,0 0,0 0,1 0,1 0,0 0,0 0,0 0,0 0,0 0,0 0,1 0,1 0,1 0,1 -1,2 -2,3 -1,2 -3,4 -5,5 -2,2 -5,4 -7,6 -1,0 -2,1 -3,1 2,-2 4,-4 6,-6 0,0 0,0 0,0 -3,2 -5,4 -7,7 0,0 0,0 0,0 0,0 0,0 -1,0 0,0 0,0 0,0 -1,-1 -1,-2 -1,-2 0,-1 0,-1 0,-1 0,-1 1,-2 1,-3 1,-1 2,-3 4,-4 0,0 0,0 0,0 -2,1 -3,2 -4,3 -1,1 -1,2 -2,3 0,0 0,1 0,1 -1,-2 -1,-3 -2,-4 1,-4 3,-6 6,-9 0,0 -1,0 -1,0 -2,2 -4,5 -5,7 -1,-1 -1,-3 -2,-4 1,-1 2,-2 2,-4 2,-2 4,-5 5,-8 0,0 0,0 0,0 -2,3 -4,6 -6,9 0,0 -1,1 -1,1 0,-1 0,-2 0,-3 0,0 0,0 0,-1 1,-4 5,-7 7,-11 1,0 0,0 0,0 -2,3 -5,6 -7,9 0,-1 0,-3 0,-5 0,-1 1,-1 1,-2 1,-2 3,-3 4,-5 0,-1 0,-1 0,-1 -2,3 -4,4 -5,6 0,0 0,0 0,-1 0,-1 1,-3 1,-4 0,-2 1,-4 2,-5 0,-1 0,-1 -1,-1 2,-2 4,-4 6,-6 5,-4 10,-8 15,-11 5,-4 10,-8 15,-12 5,-4 11,-7 17,-9 3,-1 6,-2 9,-1 3,1 6,3 9,5 4,4 8,9 10,14 0,0 0,0 0,0 -1,2 -2,5 -4,6 -2,3 -4,4 -6,6 -2,1 -5,2 -7,3 0,0 0,0 0,-1 0,0 0,0 0,0 0,1 0,1 -1,1 -1,1 -3,1 -4,1 0,-1 1,-3 2,-4 0,0 0,0 0,0 -1,1 -2,2 -3,4 0,0 0,0 0,0 -1,0 -1,0 -2,0 0,0 0,-1 -1,-1 1,-2 3,-4 5,-6 0,0 0,0 0,0 -2,1 -4,3 -5,5 0,-1 -1,-1 -1,-2 0,0 0,0 0,-1 0,-1 1,-2 2,-2 1,-2 2,-3 3,-4 0,-1 0,-1 0,-1 -2,2 -3,3 -4,5 -1,0 -1,1 -1,1 0,-1 0,-2 0,-3 0,0 0,0 0,0 1,-2 2,-3 4,-5 0,0 0,0 -1,0 -1,1 -2,2 -3,4 0,0 0,-1 0,0 -1,0 -1,0 -1,0 0,0 1,-1 1,-1 0,-1 0,-1 0,-1 -1,1 -1,1 -1,1 0,0 0,-1 0,-1zm6 15c-1,0 -1,0 -1,0 0,0 0,0 0,0 0,0 0,0 1,0zm20 -10c1,-1 2,-2 3,-3 1,-1 1,-2 1,-3 1,0 2,0 2,-1 -3,-6 -7,-12 -11,-16 -5,-4 -11,-8 -17,-7 -6,0 -12,4 -17,7 -6,3 -11,8 -16,12 -5,3 -10,7 -14,11 -5,4 -10,8 -13,14 -3,4 -4,8 -4,12 0,3 0,5 0,7 0,4 1,8 3,12 1,1 2,3 3,4 1,1 2,1 2,2 0,0 0,1 0,1 1,0 1,0 2,0 -1,1 0,1 0,1 0,0 0,0 0,-1 3,1 5,0 7,-1 2,-1 5,-3 7,-5 0,-1 0,-1 1,-1 0,-1 1,-1 2,-2 2,-1 4,-3 5,-5 1,-2 3,-3 5,-4 0,-1 1,-2 0,-2 -2,-2 -4,-4 -6,-5 -1,-1 -2,-1 -3,-2 0,0 0,0 0,0 -1,0 -1,0 -1,0 0,-1 1,-2 1,-3 1,-2 2,-4 3,-5 2,-4 5,-6 8,-9 6,-5 13,-9 20,-11 -1,2 -1,4 0,6 0,3 1,6 2,9 0,0 1,1 1,0 6,0 12,-2 18,-6 2,-1 4,-3 6,-6z"/>
  <path class="fil0" d="M134 102c-2,0 -3,1 -5,1 -2,1 -4,2 -6,3 -4,2 -8,4 -12,7 -7,5 -14,11 -18,18 0,1 0,1 0,1 5,-8 12,-14 19,-18 4,-3 7,-5 11,-7 2,-1 4,-2 6,-3 2,0 4,-1 5,-2 1,0 0,-1 0,0z"/>
  <path class="fil0" d="M120 92c3,-1 5,-2 8,-4 2,-1 4,-2 5,-3 0,-1 0,-1 0,-1 -1,1 -2,1 -3,2 -1,0 -2,1 -3,2 -2,1 -5,2 -7,3 -5,3 -10,5 -14,8 -5,3 -9,7 -13,11 -4,4 -9,8 -13,12 0,0 0,0 0,0 10,-6 17,-16 26,-23 5,-3 10,-5 14,-7z"/>
  <path class="fil0" d="M158 114c-2,0 -2,2 -3,3 -1,1 -2,2 -4,3 -3,2 -6,3 -9,4 -1,0 -1,0 0,0 3,2 7,0 10,-2 1,-1 3,-2 4,-4 1,-1 3,-2 2,-4 0,0 0,0 0,0z"/>
  <path class="fil0" d="M161 121c1,-1 2,-3 3,-4 1,-1 2,-2 2,-3 0,0 -1,-1 -1,0 -1,0 -2,1 -2,2 -1,1 -2,2 -3,3 -2,2 -4,4 -6,6 -4,3 -9,6 -15,6 0,0 0,1 0,1 6,1 11,-2 16,-5 2,-2 4,-4 6,-6z"/>
  <path class="fil0" d="M174 111c-2,1 -2,2 -3,3 -1,2 -2,3 -3,4 -2,3 -4,6 -7,8 -2,3 -5,5 -8,6 -3,2 -6,3 -9,4 0,0 0,1 0,1 3,0 6,-1 9,-3 3,-1 6,-4 9,-6 3,-2 5,-5 8,-8 1,-1 2,-2 3,-4 0,-1 2,-3 2,-4 0,-1 -1,-1 -1,-1z"/>
  <path class="fil0" d="M91 167c3,-2 6,-4 9,-6 2,-2 3,-3 5,-5 1,-1 2,-3 3,-4 0,-1 -1,-1 -1,-1 -2,1 -3,3 -4,5 -1,1 -2,2 -4,4 -2,2 -5,4 -8,6 -1,0 0,1 0,1z"/>
  <path class="fil0" d="M86 174c3,1 6,0 9,-1 3,-2 7,-4 10,-7 3,-2 5,-5 7,-8 1,-2 2,-3 3,-5 0,-2 0,-3 0,-4 0,-1 -1,-1 -1,0 0,0 -1,1 -1,1 0,1 0,2 0,2 -1,2 -2,3 -2,5 -2,3 -5,5 -7,8 -6,4 -11,7 -18,8 0,1 0,1 0,1z"/>
  <path class="fil0" d="M124 146c-1,1 -2,3 -3,5 -1,2 -1,4 -2,5 -1,4 -3,7 -6,10 -2,2 -4,3 -6,5 -2,2 -4,3 -6,5 -5,3 -10,5 -15,5 -1,0 -1,0 0,1 5,1 10,-1 15,-4 2,-1 4,-3 7,-4 2,-2 4,-4 6,-6 7,-5 9,-14 11,-22 0,-1 -1,-1 -1,0z"/>
  <path class="fil0" d="M1807 270c-2,5 -6,9 -10,13 -3,3 -6,6 -9,9 -1,-1 -2,-3 -3,-3 -1,-1 -2,-2 -3,-2 3,-2 5,-5 8,-7 0,0 1,0 1,1 2,0 4,2 5,2 1,0 1,0 1,-1 -1,-1 -4,-1 -5,-2 -1,0 -1,-1 -2,-1 1,-1 2,-2 3,-4 1,-2 2,-5 2,-7 3,1 6,1 9,2 1,1 1,-1 0,-1 -3,-1 -6,-1 -9,-2 1,-3 0,-7 -2,-10 2,0 4,-1 5,-2 2,-1 4,-4 4,-6 0,0 0,0 -1,0 0,1 0,2 -1,3 0,1 -1,1 -2,2 -1,2 -3,2 -5,3 -1,-1 -1,-2 -2,-2 -1,-1 -3,-2 -5,-3 0,0 0,0 0,0 3,-4 5,-9 4,-13 4,1 7,3 10,6 7,7 10,16 7,25zm-35 37c-1,0 -2,-1 -4,-1 -1,0 -3,0 -5,0 3,-5 6,-8 10,-12 0,0 0,0 1,1 2,0 3,2 4,3 0,1 1,0 1,0 -1,-2 -3,-4 -5,-4 2,-2 5,-4 7,-6 1,0 3,1 4,2 1,1 1,2 2,3 -1,1 -2,2 -3,2 -4,4 -8,8 -12,12zm-12 12c0,-5 1,-9 3,-13 2,1 3,1 5,2 1,0 2,0 3,1 -2,3 -4,7 -4,11 -3,0 -5,0 -7,-1zm15 -68c-1,-1 -1,-2 -1,-3 -1,-2 -1,-5 -3,-7 0,0 -1,0 -1,0 0,3 2,6 3,8 0,1 0,2 1,2 -1,0 -2,1 -3,1 -1,0 -2,1 -4,1 -1,-2 -3,-3 -5,-5 -1,0 -1,-1 -2,-1 4,-4 9,-7 14,-8 5,-1 10,-2 14,-1 0,2 1,4 0,6 0,3 -1,5 -2,8 0,0 0,0 0,0 -4,-1 -8,-1 -11,-1zm-18 10c-2,-1 -5,-2 -8,-2 3,-4 6,-8 10,-12 0,1 1,1 1,1 3,2 5,4 7,5 -4,2 -8,5 -10,8zm-2 15c-2,2 -5,3 -8,4 0,0 0,1 1,1 2,-2 5,-3 7,-5 0,1 1,2 1,4 -3,1 -5,1 -8,2 -2,-4 -3,-8 -2,-12 2,-1 4,-2 7,-2 0,0 0,-1 0,-1 -3,0 -5,1 -7,2 0,-3 1,-6 2,-8 1,0 3,0 4,0 1,0 3,1 5,1 -1,0 -1,0 -1,0 -2,4 -3,9 -1,14zm59 -19c-3,-10 -11,-19 -21,-23 -13,-5 -27,1 -37,10 0,0 0,0 -1,0 0,0 0,0 0,0 0,0 0,0 0,1 0,0 -1,1 -2,1 -3,4 -6,8 -8,13 0,0 0,0 0,1 -2,3 -2,7 -2,11 -1,0 -2,1 -2,1 -1,0 0,1 0,1 1,0 1,-1 2,-1 0,4 2,7 4,11 0,0 0,0 0,0 4,1 8,0 12,-2 0,0 0,-1 0,-2 -4,-7 -2,-15 5,-20 3,-3 7,-4 11,-5 1,0 1,0 1,1 0,0 0,-1 0,-1 0,0 0,0 0,0 3,0 6,0 9,1 6,2 8,7 7,12 0,0 0,0 -1,0 0,0 0,0 0,0 1,0 1,0 1,0 0,2 -1,4 -2,6 -1,2 -2,3 -3,5 0,0 0,0 -1,-1 0,0 0,1 0,1 0,0 1,0 1,0 -5,5 -11,10 -17,14 0,0 0,1 0,1 -1,0 -1,0 -2,0 0,0 0,0 0,0 1,0 1,0 1,0 -7,7 -13,16 -13,27 0,1 1,1 1,1 3,2 6,2 10,2 0,1 1,2 2,1 3,-3 6,-6 9,-9 2,-4 6,-7 9,-10 7,-8 15,-15 21,-23 5,-7 8,-16 6,-25z"/>
  <path class="fil0" d="M1772 359c-2,4 -8,5 -13,4 1,-2 3,-4 4,-5 1,-1 2,-2 2,-3 2,1 4,2 6,3 0,0 0,-1 0,-1 -2,-1 -3,-2 -4,-3 1,-1 2,-2 3,-3 0,0 1,1 1,2 1,2 1,4 1,6zm-20 1c-1,0 -1,-1 -2,-1 1,-1 2,-3 3,-4 2,2 4,4 7,5 -1,1 -2,2 -2,3 -3,-1 -5,-2 -6,-3zm-3 -12c1,3 3,5 4,7 -1,1 -2,2 -3,4 -2,-3 -2,-7 -1,-11zm4 -6c1,0 1,-1 2,-1 0,0 0,0 0,0 1,2 3,5 4,7 0,0 -1,1 -1,1 0,0 1,-1 1,-1 2,2 4,5 6,6 -1,1 -2,2 -3,3 0,1 -1,2 -2,2 -2,-1 -4,-3 -6,-5 1,-2 3,-4 4,-5 -1,1 -3,3 -4,5 -2,-2 -3,-4 -5,-6 1,-3 3,-5 4,-6zm11 1c-1,1 -3,3 -4,4 -2,-2 -3,-4 -4,-7 3,0 6,1 8,3zm6 6c-2,-1 -3,-3 -4,-5 0,0 -1,0 -1,0 2,2 3,4 4,6 -1,1 -2,2 -3,3 -2,-2 -4,-4 -6,-6 1,-1 3,-3 4,-4 1,0 1,0 1,0 2,2 3,4 5,6zm-6 -13c-6,-3 -13,-1 -15,6 0,0 0,0 0,0 0,1 -1,2 -1,2 0,0 -1,0 0,0l0 0c-4,6 -5,12 -1,18 0,0 0,0 0,0 0,0 0,0 0,0 0,1 1,1 1,1 2,2 4,3 7,3 -1,2 -2,3 -3,4 0,0 1,1 1,0 1,-1 2,-2 3,-3 1,0 2,0 3,0 4,1 9,1 13,-1 6,-3 6,-11 4,-17 -2,-5 -7,-11 -12,-13z"/>
  <polygon class="fil1" points="497,652 477,639 462,651 459,648 477,634 497,647 514,634 534,647 551,634 570,647 588,634 607,647 626,634 644,647 661,635 664,638 644,652 626,639 607,652 588,639 570,652 551,639 534,652 514,639 "/>
  <polygon class="fil1" points="497,680 477,666 462,679 459,675 477,661 497,674 514,661 534,674 551,661 570,674 588,661 607,674 626,661 644,674 661,662 664,666 644,680 626,666 607,680 588,666 570,680 551,666 534,680 514,666 "/>
  <polygon class="fil1" points="497,707 477,694 462,706 459,702 477,688 497,702 514,688 534,702 551,688 570,702 588,688 607,702 626,688 644,702 661,689 664,693 644,707 626,694 607,707 588,694 570,707 551,694 534,707 514,694 "/>
  <polygon class="fil1" points="497,734 477,721 462,733 459,730 477,716 497,729 514,716 534,729 551,716 570,729 588,716 607,729 626,716 644,729 661,716 664,720 644,734 626,721 607,734 588,721 570,734 551,721 534,734 514,721 "/>
  <rect class="fil2" width="1920" height="1080"/>
 </g>
</svg>
